<mxfile host="Electron" modified="2024-03-17T10:24:17.457Z" agent="Mozilla/5.0 (Windows NT 10.0; Win64; x64) AppleWebKit/537.36 (KHTML, like Gecko) draw.io/24.0.4 Chrome/120.0.6099.109 Electron/28.1.0 Safari/537.36" etag="H1wIVDyhV7uZadnemrdm" version="24.0.4" type="device">
  <diagram name="ページ1" id="RBTgPv35XS0Tix3m99nk">
    <mxGraphModel dx="1728" dy="6843" grid="1" gridSize="1" guides="1" tooltips="1" connect="1" arrows="1" fold="1" page="1" pageScale="1" pageWidth="1654" pageHeight="1169" math="0" shadow="0">
      <root>
        <mxCell id="0" />
        <mxCell id="1" parent="0" />
        <mxCell id="3OC-SB5iVZ5b2a8PuaH1-1" value="本社" style="shape=umlFrame;whiteSpace=wrap;html=1;pointerEvents=0;width=150;height=30;" parent="1" vertex="1">
          <mxGeometry x="623" y="-817" width="335" height="363" as="geometry" />
        </mxCell>
        <mxCell id="3OC-SB5iVZ5b2a8PuaH1-8" value="豊田高岡店" style="shape=umlFrame;whiteSpace=wrap;html=1;pointerEvents=0;width=120;height=30;" parent="1" vertex="1">
          <mxGeometry x="162" y="334" width="622" height="404" as="geometry" />
        </mxCell>
        <mxCell id="3OC-SB5iVZ5b2a8PuaH1-9" value="store_4316_replica" style="shape=cylinder3;whiteSpace=wrap;html=1;boundedLbl=1;backgroundOutline=1;size=15;" parent="1" vertex="1">
          <mxGeometry x="623" y="-2955" width="120" height="80" as="geometry" />
        </mxCell>
        <mxCell id="3OC-SB5iVZ5b2a8PuaH1-10" value="payment_methods" style="rounded=0;whiteSpace=wrap;html=1;" parent="1" vertex="1">
          <mxGeometry x="252" y="544" width="130" height="20" as="geometry" />
        </mxCell>
        <mxCell id="3OC-SB5iVZ5b2a8PuaH1-11" value="menus" style="rounded=0;whiteSpace=wrap;html=1;" parent="1" vertex="1">
          <mxGeometry x="252" y="514" width="130" height="20" as="geometry" />
        </mxCell>
        <mxCell id="3OC-SB5iVZ5b2a8PuaH1-12" value="seats" style="rounded=0;whiteSpace=wrap;html=1;" parent="1" vertex="1">
          <mxGeometry x="252" y="574" width="130" height="20" as="geometry" />
        </mxCell>
        <mxCell id="3OC-SB5iVZ5b2a8PuaH1-13" value="customers" style="rounded=0;whiteSpace=wrap;html=1;" parent="1" vertex="1">
          <mxGeometry x="252" y="604" width="130" height="20" as="geometry" />
        </mxCell>
        <mxCell id="3OC-SB5iVZ5b2a8PuaH1-14" value="orders" style="rounded=0;whiteSpace=wrap;html=1;" parent="1" vertex="1">
          <mxGeometry x="252" y="634" width="130" height="20" as="geometry" />
        </mxCell>
        <mxCell id="3OC-SB5iVZ5b2a8PuaH1-16" value="127.0.0.1:5433" style="shape=umlFrame;whiteSpace=wrap;html=1;pointerEvents=0;width=110;height=30;" parent="1" vertex="1">
          <mxGeometry x="182" y="376.5" width="270" height="337.5" as="geometry" />
        </mxCell>
        <mxCell id="3OC-SB5iVZ5b2a8PuaH1-17" value="store_4316" style="shape=umlFrame;whiteSpace=wrap;html=1;pointerEvents=0;width=110;height=30;" parent="1" vertex="1">
          <mxGeometry x="202" y="419" width="230" height="275" as="geometry" />
        </mxCell>
        <mxCell id="3OC-SB5iVZ5b2a8PuaH1-18" value="store_4316" style="shape=cylinder3;whiteSpace=wrap;html=1;boundedLbl=1;backgroundOutline=1;size=15;" parent="1" vertex="1">
          <mxGeometry x="523" y="-2955" width="80" height="80" as="geometry" />
        </mxCell>
        <mxCell id="3OC-SB5iVZ5b2a8PuaH1-19" value="store_4123" style="shape=cylinder3;whiteSpace=wrap;html=1;boundedLbl=1;backgroundOutline=1;size=15;" parent="1" vertex="1">
          <mxGeometry x="833" y="-2955" width="80" height="80" as="geometry" />
        </mxCell>
        <mxCell id="3OC-SB5iVZ5b2a8PuaH1-20" value="store_4123_replica" style="shape=cylinder3;whiteSpace=wrap;html=1;boundedLbl=1;backgroundOutline=1;size=15;" parent="1" vertex="1">
          <mxGeometry x="953" y="-2955" width="120" height="80" as="geometry" />
        </mxCell>
        <mxCell id="3OC-SB5iVZ5b2a8PuaH1-21" value="headquarters" style="shape=cylinder3;whiteSpace=wrap;html=1;boundedLbl=1;backgroundOutline=1;size=15;" parent="1" vertex="1">
          <mxGeometry x="723" y="-3155" width="120" height="80" as="geometry" />
        </mxCell>
        <mxCell id="3OC-SB5iVZ5b2a8PuaH1-34" value="127.0.0.1:5432" style="shape=umlFrame;whiteSpace=wrap;html=1;pointerEvents=0;width=111;height=29;" parent="1" vertex="1">
          <mxGeometry x="646" y="-774.5" width="284" height="302.5" as="geometry" />
        </mxCell>
        <mxCell id="3OC-SB5iVZ5b2a8PuaH1-35" value="headquarters" style="shape=umlFrame;whiteSpace=wrap;html=1;pointerEvents=0;width=110;height=30;" parent="1" vertex="1">
          <mxGeometry x="666" y="-730" width="236" height="239" as="geometry" />
        </mxCell>
        <mxCell id="3OC-SB5iVZ5b2a8PuaH1-36" value="management_system" style="shape=umlFrame;whiteSpace=wrap;html=1;pointerEvents=0;width=145;height=30;" parent="1" vertex="1">
          <mxGeometry x="691" y="-687" width="185" height="176" as="geometry" />
        </mxCell>
        <mxCell id="3OC-SB5iVZ5b2a8PuaH1-37" value="order_system" style="shape=umlFrame;whiteSpace=wrap;html=1;pointerEvents=0;width=110;height=30;" parent="1" vertex="1">
          <mxGeometry x="222" y="464" width="190" height="210" as="geometry" />
        </mxCell>
        <mxCell id="3OC-SB5iVZ5b2a8PuaH1-38" value="本社" style="shape=umlFrame;whiteSpace=wrap;html=1;pointerEvents=0;width=100;height=30;" parent="1" vertex="1">
          <mxGeometry x="673" y="-3205" width="220" height="160" as="geometry" />
        </mxCell>
        <mxCell id="3OC-SB5iVZ5b2a8PuaH1-39" value="豊田高岡店" style="shape=umlFrame;whiteSpace=wrap;html=1;pointerEvents=0;width=100;height=30;" parent="1" vertex="1">
          <mxGeometry x="493" y="-3015" width="280" height="220" as="geometry" />
        </mxCell>
        <mxCell id="3OC-SB5iVZ5b2a8PuaH1-40" value="豊田朝日店" style="shape=umlFrame;whiteSpace=wrap;html=1;pointerEvents=0;width=100;height=30;" parent="1" vertex="1">
          <mxGeometry x="813" y="-3015" width="280" height="220" as="geometry" />
        </mxCell>
        <mxCell id="3OC-SB5iVZ5b2a8PuaH1-41" value="座席案内App" style="rounded=0;whiteSpace=wrap;html=1;" parent="1" vertex="1">
          <mxGeometry x="533" y="-2845" width="90" height="30" as="geometry" />
        </mxCell>
        <mxCell id="3OC-SB5iVZ5b2a8PuaH1-42" value="商品注文App" style="rounded=0;whiteSpace=wrap;html=1;" parent="1" vertex="1">
          <mxGeometry x="643" y="-2845" width="90" height="30" as="geometry" />
        </mxCell>
        <mxCell id="3OC-SB5iVZ5b2a8PuaH1-43" value="座席案内App" style="rounded=0;whiteSpace=wrap;html=1;" parent="1" vertex="1">
          <mxGeometry x="853" y="-2845" width="90" height="30" as="geometry" />
        </mxCell>
        <mxCell id="3OC-SB5iVZ5b2a8PuaH1-44" value="商品注文App" style="rounded=0;whiteSpace=wrap;html=1;" parent="1" vertex="1">
          <mxGeometry x="963" y="-2845" width="90" height="30" as="geometry" />
        </mxCell>
        <mxCell id="3OC-SB5iVZ5b2a8PuaH1-45" value="payment_methods" style="rounded=0;whiteSpace=wrap;html=1;" parent="1" vertex="1">
          <mxGeometry x="552" y="544" width="130" height="20" as="geometry" />
        </mxCell>
        <mxCell id="3OC-SB5iVZ5b2a8PuaH1-46" value="menus" style="rounded=0;whiteSpace=wrap;html=1;" parent="1" vertex="1">
          <mxGeometry x="552" y="514" width="130" height="20" as="geometry" />
        </mxCell>
        <mxCell id="3OC-SB5iVZ5b2a8PuaH1-47" value="seats" style="rounded=0;whiteSpace=wrap;html=1;" parent="1" vertex="1">
          <mxGeometry x="552" y="574" width="130" height="20" as="geometry" />
        </mxCell>
        <mxCell id="3OC-SB5iVZ5b2a8PuaH1-48" value="customers" style="rounded=0;whiteSpace=wrap;html=1;" parent="1" vertex="1">
          <mxGeometry x="552" y="604" width="130" height="20" as="geometry" />
        </mxCell>
        <mxCell id="3OC-SB5iVZ5b2a8PuaH1-49" value="orders" style="rounded=0;whiteSpace=wrap;html=1;" parent="1" vertex="1">
          <mxGeometry x="552" y="634" width="130" height="20" as="geometry" />
        </mxCell>
        <mxCell id="3OC-SB5iVZ5b2a8PuaH1-50" value="127.0.0.1:5434" style="shape=umlFrame;whiteSpace=wrap;html=1;pointerEvents=0;width=110;height=30;" parent="1" vertex="1">
          <mxGeometry x="482" y="376.5" width="270" height="337.5" as="geometry" />
        </mxCell>
        <mxCell id="3OC-SB5iVZ5b2a8PuaH1-51" value="store_4316_replica" style="shape=umlFrame;whiteSpace=wrap;html=1;pointerEvents=0;width=132;height=30;" parent="1" vertex="1">
          <mxGeometry x="502" y="419" width="230" height="275" as="geometry" />
        </mxCell>
        <mxCell id="3OC-SB5iVZ5b2a8PuaH1-52" value="order_system" style="shape=umlFrame;whiteSpace=wrap;html=1;pointerEvents=0;width=110;height=30;" parent="1" vertex="1">
          <mxGeometry x="522" y="464" width="190" height="210" as="geometry" />
        </mxCell>
        <mxCell id="3OC-SB5iVZ5b2a8PuaH1-53" value="payment_methods" style="rounded=0;whiteSpace=wrap;html=1;" parent="1" vertex="1">
          <mxGeometry x="722" y="-607" width="130" height="20" as="geometry" />
        </mxCell>
        <mxCell id="3OC-SB5iVZ5b2a8PuaH1-54" value="menus" style="rounded=0;whiteSpace=wrap;html=1;" parent="1" vertex="1">
          <mxGeometry x="722" y="-637" width="130" height="20" as="geometry" />
        </mxCell>
        <mxCell id="3OC-SB5iVZ5b2a8PuaH1-56" value="customers_{store_id}" style="rounded=0;whiteSpace=wrap;html=1;" parent="1" vertex="1">
          <mxGeometry x="721.75" y="-577" width="130" height="20" as="geometry" />
        </mxCell>
        <mxCell id="3OC-SB5iVZ5b2a8PuaH1-57" value="orders_{store_id}" style="rounded=0;whiteSpace=wrap;html=1;" parent="1" vertex="1">
          <mxGeometry x="721.75" y="-547" width="130" height="20" as="geometry" />
        </mxCell>
        <mxCell id="3OC-SB5iVZ5b2a8PuaH1-58" value="豊田朝日店" style="shape=umlFrame;whiteSpace=wrap;html=1;pointerEvents=0;width=120;height=30;" parent="1" vertex="1">
          <mxGeometry x="843" y="337" width="622" height="404" as="geometry" />
        </mxCell>
        <mxCell id="3OC-SB5iVZ5b2a8PuaH1-59" value="payment_methods" style="rounded=0;whiteSpace=wrap;html=1;" parent="1" vertex="1">
          <mxGeometry x="933" y="547" width="130" height="20" as="geometry" />
        </mxCell>
        <mxCell id="3OC-SB5iVZ5b2a8PuaH1-60" value="menus" style="rounded=0;whiteSpace=wrap;html=1;" parent="1" vertex="1">
          <mxGeometry x="933" y="517" width="130" height="20" as="geometry" />
        </mxCell>
        <mxCell id="3OC-SB5iVZ5b2a8PuaH1-61" value="seats" style="rounded=0;whiteSpace=wrap;html=1;" parent="1" vertex="1">
          <mxGeometry x="933" y="577" width="130" height="20" as="geometry" />
        </mxCell>
        <mxCell id="3OC-SB5iVZ5b2a8PuaH1-62" value="customers" style="rounded=0;whiteSpace=wrap;html=1;" parent="1" vertex="1">
          <mxGeometry x="933" y="607" width="130" height="20" as="geometry" />
        </mxCell>
        <mxCell id="3OC-SB5iVZ5b2a8PuaH1-63" value="orders" style="rounded=0;whiteSpace=wrap;html=1;" parent="1" vertex="1">
          <mxGeometry x="933" y="637" width="130" height="20" as="geometry" />
        </mxCell>
        <mxCell id="3OC-SB5iVZ5b2a8PuaH1-64" value="127.0.0.1:5435" style="shape=umlFrame;whiteSpace=wrap;html=1;pointerEvents=0;width=110;height=30;" parent="1" vertex="1">
          <mxGeometry x="863" y="379.5" width="270" height="337.5" as="geometry" />
        </mxCell>
        <mxCell id="3OC-SB5iVZ5b2a8PuaH1-65" value="store_4123" style="shape=umlFrame;whiteSpace=wrap;html=1;pointerEvents=0;width=110;height=30;" parent="1" vertex="1">
          <mxGeometry x="883" y="422" width="230" height="275" as="geometry" />
        </mxCell>
        <mxCell id="3OC-SB5iVZ5b2a8PuaH1-66" value="order_system" style="shape=umlFrame;whiteSpace=wrap;html=1;pointerEvents=0;width=110;height=30;" parent="1" vertex="1">
          <mxGeometry x="903" y="467" width="190" height="210" as="geometry" />
        </mxCell>
        <mxCell id="3OC-SB5iVZ5b2a8PuaH1-67" value="payment_methods" style="rounded=0;whiteSpace=wrap;html=1;" parent="1" vertex="1">
          <mxGeometry x="1233" y="547" width="130" height="20" as="geometry" />
        </mxCell>
        <mxCell id="3OC-SB5iVZ5b2a8PuaH1-68" value="menus" style="rounded=0;whiteSpace=wrap;html=1;" parent="1" vertex="1">
          <mxGeometry x="1233" y="517" width="130" height="20" as="geometry" />
        </mxCell>
        <mxCell id="3OC-SB5iVZ5b2a8PuaH1-69" value="seats" style="rounded=0;whiteSpace=wrap;html=1;" parent="1" vertex="1">
          <mxGeometry x="1233" y="577" width="130" height="20" as="geometry" />
        </mxCell>
        <mxCell id="3OC-SB5iVZ5b2a8PuaH1-70" value="customers" style="rounded=0;whiteSpace=wrap;html=1;" parent="1" vertex="1">
          <mxGeometry x="1233" y="607" width="130" height="20" as="geometry" />
        </mxCell>
        <mxCell id="3OC-SB5iVZ5b2a8PuaH1-71" value="orders" style="rounded=0;whiteSpace=wrap;html=1;" parent="1" vertex="1">
          <mxGeometry x="1233" y="637" width="130" height="20" as="geometry" />
        </mxCell>
        <mxCell id="3OC-SB5iVZ5b2a8PuaH1-72" value="127.0.0.1:5436" style="shape=umlFrame;whiteSpace=wrap;html=1;pointerEvents=0;width=110;height=30;" parent="1" vertex="1">
          <mxGeometry x="1163" y="379.5" width="270" height="337.5" as="geometry" />
        </mxCell>
        <mxCell id="3OC-SB5iVZ5b2a8PuaH1-73" value="store_4123_replica" style="shape=umlFrame;whiteSpace=wrap;html=1;pointerEvents=0;width=132;height=30;" parent="1" vertex="1">
          <mxGeometry x="1183" y="422" width="230" height="275" as="geometry" />
        </mxCell>
        <mxCell id="3OC-SB5iVZ5b2a8PuaH1-74" value="order_system" style="shape=umlFrame;whiteSpace=wrap;html=1;pointerEvents=0;width=110;height=30;" parent="1" vertex="1">
          <mxGeometry x="1203" y="467" width="190" height="210" as="geometry" />
        </mxCell>
        <mxCell id="3OC-SB5iVZ5b2a8PuaH1-76" value="headquarters" style="shape=umlFrame;whiteSpace=wrap;html=1;pointerEvents=0;width=110;height=30;" parent="1" vertex="1">
          <mxGeometry x="273" y="1335" width="504" height="161" as="geometry" />
        </mxCell>
        <mxCell id="3OC-SB5iVZ5b2a8PuaH1-78" value="management_system" style="shape=umlFrame;whiteSpace=wrap;html=1;pointerEvents=0;width=145;height=30;" parent="1" vertex="1">
          <mxGeometry x="298.5" y="1381" width="451.5" height="92" as="geometry" />
        </mxCell>
        <mxCell id="3OC-SB5iVZ5b2a8PuaH1-77" value="menus" style="rounded=0;whiteSpace=wrap;html=1;" parent="1" vertex="1">
          <mxGeometry x="378" y="1434" width="130" height="20" as="geometry" />
        </mxCell>
        <mxCell id="3OC-SB5iVZ5b2a8PuaH1-79" value="menus" style="rounded=0;whiteSpace=wrap;html=1;" parent="1" vertex="1">
          <mxGeometry x="378" y="1673" width="130" height="20" as="geometry" />
        </mxCell>
        <mxCell id="3OC-SB5iVZ5b2a8PuaH1-80" value="store_4316" style="shape=umlFrame;whiteSpace=wrap;html=1;pointerEvents=0;width=110;height=30;" parent="1" vertex="1">
          <mxGeometry x="273" y="1579" width="505" height="158" as="geometry" />
        </mxCell>
        <mxCell id="3OC-SB5iVZ5b2a8PuaH1-81" value="order_system" style="shape=umlFrame;whiteSpace=wrap;html=1;pointerEvents=0;width=110;height=30;" parent="1" vertex="1">
          <mxGeometry x="293" y="1624" width="459" height="91" as="geometry" />
        </mxCell>
        <mxCell id="3OC-SB5iVZ5b2a8PuaH1-82" value="" style="endArrow=classic;html=1;rounded=0;entryX=0.5;entryY=1;entryDx=0;entryDy=0;exitX=0.5;exitY=0;exitDx=0;exitDy=0;" parent="1" source="3OC-SB5iVZ5b2a8PuaH1-79" target="3OC-SB5iVZ5b2a8PuaH1-77" edge="1">
          <mxGeometry width="50" height="50" relative="1" as="geometry">
            <mxPoint x="359" y="1534" as="sourcePoint" />
            <mxPoint x="413.25" y="1537" as="targetPoint" />
          </mxGeometry>
        </mxCell>
        <mxCell id="3OC-SB5iVZ5b2a8PuaH1-83" value="FDW" style="text;html=1;strokeColor=none;fillColor=none;align=center;verticalAlign=middle;whiteSpace=wrap;rounded=0;" parent="1" vertex="1">
          <mxGeometry x="449.25" y="1525" width="60" height="30" as="geometry" />
        </mxCell>
        <mxCell id="3OC-SB5iVZ5b2a8PuaH1-92" value="headquarters" style="shape=umlFrame;whiteSpace=wrap;html=1;pointerEvents=0;width=110;height=30;" parent="1" vertex="1">
          <mxGeometry x="839" y="1334" width="538" height="161" as="geometry" />
        </mxCell>
        <mxCell id="3OC-SB5iVZ5b2a8PuaH1-93" value="management_system" style="shape=umlFrame;whiteSpace=wrap;html=1;pointerEvents=0;width=145;height=30;" parent="1" vertex="1">
          <mxGeometry x="864.5" y="1380" width="483.5" height="92" as="geometry" />
        </mxCell>
        <mxCell id="3OC-SB5iVZ5b2a8PuaH1-96" value="store_4316_replica" style="shape=umlFrame;whiteSpace=wrap;html=1;pointerEvents=0;width=132;height=29;" parent="1" vertex="1">
          <mxGeometry x="839" y="1578" width="537" height="158" as="geometry" />
        </mxCell>
        <mxCell id="3OC-SB5iVZ5b2a8PuaH1-97" value="order_system" style="shape=umlFrame;whiteSpace=wrap;html=1;pointerEvents=0;width=110;height=30;" parent="1" vertex="1">
          <mxGeometry x="859" y="1623" width="490" height="91" as="geometry" />
        </mxCell>
        <mxCell id="3OC-SB5iVZ5b2a8PuaH1-98" value="" style="endArrow=classic;html=1;rounded=0;exitX=0.5;exitY=1;exitDx=0;exitDy=0;entryX=0.5;entryY=0;entryDx=0;entryDy=0;" parent="1" source="3OC-SB5iVZ5b2a8PuaH1-119" target="3OC-SB5iVZ5b2a8PuaH1-112" edge="1">
          <mxGeometry width="50" height="50" relative="1" as="geometry">
            <mxPoint x="1190.29" y="1480" as="sourcePoint" />
            <mxPoint x="899" y="1543" as="targetPoint" />
          </mxGeometry>
        </mxCell>
        <mxCell id="3OC-SB5iVZ5b2a8PuaH1-99" value="FDW" style="text;html=1;strokeColor=none;fillColor=none;align=center;verticalAlign=middle;whiteSpace=wrap;rounded=0;" parent="1" vertex="1">
          <mxGeometry x="1029" y="1532" width="60" height="30" as="geometry" />
        </mxCell>
        <mxCell id="3OC-SB5iVZ5b2a8PuaH1-112" value="customers" style="rounded=0;whiteSpace=wrap;html=1;" parent="1" vertex="1">
          <mxGeometry x="955" y="1670" width="130" height="20" as="geometry" />
        </mxCell>
        <mxCell id="3OC-SB5iVZ5b2a8PuaH1-113" value="orders_4316" style="rounded=0;whiteSpace=wrap;html=1;" parent="1" vertex="1">
          <mxGeometry x="1125" y="1430" width="130" height="20" as="geometry" />
        </mxCell>
        <mxCell id="3OC-SB5iVZ5b2a8PuaH1-114" value="payment_methods" style="rounded=0;whiteSpace=wrap;html=1;" parent="1" vertex="1">
          <mxGeometry x="537" y="1433" width="130" height="20" as="geometry" />
        </mxCell>
        <mxCell id="3OC-SB5iVZ5b2a8PuaH1-115" value="payment_methods" style="rounded=0;whiteSpace=wrap;html=1;" parent="1" vertex="1">
          <mxGeometry x="537" y="1672" width="130" height="20" as="geometry" />
        </mxCell>
        <mxCell id="3OC-SB5iVZ5b2a8PuaH1-116" value="" style="endArrow=classic;html=1;rounded=0;entryX=0.5;entryY=1;entryDx=0;entryDy=0;exitX=0.5;exitY=0;exitDx=0;exitDy=0;" parent="1" source="3OC-SB5iVZ5b2a8PuaH1-115" target="3OC-SB5iVZ5b2a8PuaH1-114" edge="1">
          <mxGeometry width="50" height="50" relative="1" as="geometry">
            <mxPoint x="546" y="1545" as="sourcePoint" />
            <mxPoint x="572.25" y="1536" as="targetPoint" />
          </mxGeometry>
        </mxCell>
        <mxCell id="3OC-SB5iVZ5b2a8PuaH1-117" value="FDW" style="text;html=1;strokeColor=none;fillColor=none;align=center;verticalAlign=middle;whiteSpace=wrap;rounded=0;" parent="1" vertex="1">
          <mxGeometry x="608.25" y="1524" width="60" height="30" as="geometry" />
        </mxCell>
        <mxCell id="3OC-SB5iVZ5b2a8PuaH1-119" value="customers_4316" style="rounded=0;whiteSpace=wrap;html=1;" parent="1" vertex="1">
          <mxGeometry x="955" y="1430" width="130" height="20" as="geometry" />
        </mxCell>
        <mxCell id="3OC-SB5iVZ5b2a8PuaH1-120" value="orders" style="rounded=0;whiteSpace=wrap;html=1;" parent="1" vertex="1">
          <mxGeometry x="1125" y="1671" width="130" height="20" as="geometry" />
        </mxCell>
        <mxCell id="3OC-SB5iVZ5b2a8PuaH1-122" value="" style="endArrow=classic;html=1;rounded=0;exitX=0.5;exitY=1;exitDx=0;exitDy=0;" parent="1" source="3OC-SB5iVZ5b2a8PuaH1-113" target="3OC-SB5iVZ5b2a8PuaH1-120" edge="1">
          <mxGeometry width="50" height="50" relative="1" as="geometry">
            <mxPoint x="1157" y="1684" as="sourcePoint" />
            <mxPoint x="1143" y="1527" as="targetPoint" />
          </mxGeometry>
        </mxCell>
        <mxCell id="3OC-SB5iVZ5b2a8PuaH1-123" value="FDW" style="text;html=1;strokeColor=none;fillColor=none;align=center;verticalAlign=middle;whiteSpace=wrap;rounded=0;" parent="1" vertex="1">
          <mxGeometry x="1204" y="1532" width="60" height="30" as="geometry" />
        </mxCell>
        <mxCell id="3OC-SB5iVZ5b2a8PuaH1-124" value="payment_methods" style="rounded=0;whiteSpace=wrap;html=1;" parent="1" vertex="1">
          <mxGeometry x="611.25" y="1941" width="130" height="20" as="geometry" />
        </mxCell>
        <mxCell id="3OC-SB5iVZ5b2a8PuaH1-125" value="menus" style="rounded=0;whiteSpace=wrap;html=1;" parent="1" vertex="1">
          <mxGeometry x="611.25" y="1911" width="130" height="20" as="geometry" />
        </mxCell>
        <mxCell id="3OC-SB5iVZ5b2a8PuaH1-126" value="seats" style="rounded=0;whiteSpace=wrap;html=1;" parent="1" vertex="1">
          <mxGeometry x="611.25" y="1971" width="130" height="20" as="geometry" />
        </mxCell>
        <mxCell id="3OC-SB5iVZ5b2a8PuaH1-127" value="customers" style="rounded=0;whiteSpace=wrap;html=1;" parent="1" vertex="1">
          <mxGeometry x="611.25" y="2001" width="130" height="20" as="geometry" />
        </mxCell>
        <mxCell id="3OC-SB5iVZ5b2a8PuaH1-128" value="orders" style="rounded=0;whiteSpace=wrap;html=1;" parent="1" vertex="1">
          <mxGeometry x="611.25" y="2031" width="130" height="20" as="geometry" />
        </mxCell>
        <mxCell id="3OC-SB5iVZ5b2a8PuaH1-129" value="store_4316" style="shape=umlFrame;whiteSpace=wrap;html=1;pointerEvents=0;width=110;height=30;" parent="1" vertex="1">
          <mxGeometry x="561.25" y="1816" width="230" height="275" as="geometry" />
        </mxCell>
        <mxCell id="3OC-SB5iVZ5b2a8PuaH1-130" value="order_system" style="shape=umlFrame;whiteSpace=wrap;html=1;pointerEvents=0;width=110;height=30;" parent="1" vertex="1">
          <mxGeometry x="581.25" y="1861" width="190" height="210" as="geometry" />
        </mxCell>
        <mxCell id="3OC-SB5iVZ5b2a8PuaH1-131" value="payment_methods" style="rounded=0;whiteSpace=wrap;html=1;" parent="1" vertex="1">
          <mxGeometry x="964" y="1941" width="130" height="20" as="geometry" />
        </mxCell>
        <mxCell id="3OC-SB5iVZ5b2a8PuaH1-132" value="menus" style="rounded=0;whiteSpace=wrap;html=1;" parent="1" vertex="1">
          <mxGeometry x="964" y="1911" width="130" height="20" as="geometry" />
        </mxCell>
        <mxCell id="3OC-SB5iVZ5b2a8PuaH1-133" value="seats" style="rounded=0;whiteSpace=wrap;html=1;" parent="1" vertex="1">
          <mxGeometry x="964" y="1971" width="130" height="20" as="geometry" />
        </mxCell>
        <mxCell id="3OC-SB5iVZ5b2a8PuaH1-134" value="customers" style="rounded=0;whiteSpace=wrap;html=1;" parent="1" vertex="1">
          <mxGeometry x="964" y="2001" width="130" height="20" as="geometry" />
        </mxCell>
        <mxCell id="3OC-SB5iVZ5b2a8PuaH1-135" value="orders" style="rounded=0;whiteSpace=wrap;html=1;" parent="1" vertex="1">
          <mxGeometry x="964" y="2031" width="130" height="20" as="geometry" />
        </mxCell>
        <mxCell id="3OC-SB5iVZ5b2a8PuaH1-136" value="store_4316_replica" style="shape=umlFrame;whiteSpace=wrap;html=1;pointerEvents=0;width=132;height=30;" parent="1" vertex="1">
          <mxGeometry x="914" y="1816" width="230" height="275" as="geometry" />
        </mxCell>
        <mxCell id="3OC-SB5iVZ5b2a8PuaH1-137" value="order_system" style="shape=umlFrame;whiteSpace=wrap;html=1;pointerEvents=0;width=110;height=30;" parent="1" vertex="1">
          <mxGeometry x="934" y="1861" width="190" height="210" as="geometry" />
        </mxCell>
        <mxCell id="3OC-SB5iVZ5b2a8PuaH1-138" value="" style="endArrow=classic;html=1;rounded=0;exitX=1;exitY=0.5;exitDx=0;exitDy=0;entryX=0;entryY=0.5;entryDx=0;entryDy=0;" parent="1" source="3OC-SB5iVZ5b2a8PuaH1-128" target="3OC-SB5iVZ5b2a8PuaH1-135" edge="1">
          <mxGeometry width="50" height="50" relative="1" as="geometry">
            <mxPoint x="928" y="1990" as="sourcePoint" />
            <mxPoint x="928" y="1769" as="targetPoint" />
          </mxGeometry>
        </mxCell>
        <mxCell id="3OC-SB5iVZ5b2a8PuaH1-139" value="REPLICATION" style="text;html=1;strokeColor=none;fillColor=none;align=center;verticalAlign=middle;whiteSpace=wrap;rounded=0;" parent="1" vertex="1">
          <mxGeometry x="806" y="2005" width="97" height="30" as="geometry" />
        </mxCell>
        <mxCell id="3OC-SB5iVZ5b2a8PuaH1-140" value="商品注文App" style="rounded=0;whiteSpace=wrap;html=1;" parent="1" vertex="1">
          <mxGeometry x="336" y="2025" width="90" height="30" as="geometry" />
        </mxCell>
        <mxCell id="3OC-SB5iVZ5b2a8PuaH1-141" value="" style="endArrow=classic;html=1;rounded=0;exitX=1;exitY=0.5;exitDx=0;exitDy=0;entryX=0;entryY=0.5;entryDx=0;entryDy=0;" parent="1" source="3OC-SB5iVZ5b2a8PuaH1-140" target="3OC-SB5iVZ5b2a8PuaH1-128" edge="1">
          <mxGeometry width="50" height="50" relative="1" as="geometry">
            <mxPoint x="742" y="2042" as="sourcePoint" />
            <mxPoint x="965" y="2042" as="targetPoint" />
          </mxGeometry>
        </mxCell>
        <mxCell id="3OC-SB5iVZ5b2a8PuaH1-142" value="INSERT" style="text;html=1;strokeColor=none;fillColor=none;align=center;verticalAlign=middle;whiteSpace=wrap;rounded=0;" parent="1" vertex="1">
          <mxGeometry x="452" y="2005" width="97" height="30" as="geometry" />
        </mxCell>
        <mxCell id="UYoktTO1jZP03NETFvOB-1" value="paypent_methods" style="shape=table;startSize=30;container=1;collapsible=1;childLayout=tableLayout;fixedRows=1;rowLines=0;fontStyle=1;align=center;resizeLast=1;html=1;" parent="1" vertex="1">
          <mxGeometry x="941" y="-4368" width="310" height="90" as="geometry" />
        </mxCell>
        <mxCell id="UYoktTO1jZP03NETFvOB-2" value="" style="shape=tableRow;horizontal=0;startSize=0;swimlaneHead=0;swimlaneBody=0;fillColor=none;collapsible=0;dropTarget=0;points=[[0,0.5],[1,0.5]];portConstraint=eastwest;top=0;left=0;right=0;bottom=1;" parent="UYoktTO1jZP03NETFvOB-1" vertex="1">
          <mxGeometry y="30" width="310" height="30" as="geometry" />
        </mxCell>
        <mxCell id="UYoktTO1jZP03NETFvOB-3" value="" style="shape=partialRectangle;connectable=0;fillColor=none;top=0;left=0;bottom=0;right=0;fontStyle=1;overflow=hidden;whiteSpace=wrap;html=1;" parent="UYoktTO1jZP03NETFvOB-2" vertex="1">
          <mxGeometry width="30" height="30" as="geometry">
            <mxRectangle width="30" height="30" as="alternateBounds" />
          </mxGeometry>
        </mxCell>
        <mxCell id="UYoktTO1jZP03NETFvOB-4" value="payment_method_id serial" style="shape=partialRectangle;connectable=0;fillColor=none;top=0;left=0;bottom=0;right=0;align=left;spacingLeft=6;fontStyle=5;overflow=hidden;whiteSpace=wrap;html=1;" parent="UYoktTO1jZP03NETFvOB-2" vertex="1">
          <mxGeometry x="30" width="280" height="30" as="geometry">
            <mxRectangle width="280" height="30" as="alternateBounds" />
          </mxGeometry>
        </mxCell>
        <mxCell id="UYoktTO1jZP03NETFvOB-5" value="" style="shape=tableRow;horizontal=0;startSize=0;swimlaneHead=0;swimlaneBody=0;fillColor=none;collapsible=0;dropTarget=0;points=[[0,0.5],[1,0.5]];portConstraint=eastwest;top=0;left=0;right=0;bottom=0;" parent="UYoktTO1jZP03NETFvOB-1" vertex="1">
          <mxGeometry y="60" width="310" height="30" as="geometry" />
        </mxCell>
        <mxCell id="UYoktTO1jZP03NETFvOB-6" value="" style="shape=partialRectangle;connectable=0;fillColor=none;top=0;left=0;bottom=0;right=0;editable=1;overflow=hidden;whiteSpace=wrap;html=1;" parent="UYoktTO1jZP03NETFvOB-5" vertex="1">
          <mxGeometry width="30" height="30" as="geometry">
            <mxRectangle width="30" height="30" as="alternateBounds" />
          </mxGeometry>
        </mxCell>
        <mxCell id="UYoktTO1jZP03NETFvOB-7" value="payment_method_name varchar not null" style="shape=partialRectangle;connectable=0;fillColor=none;top=0;left=0;bottom=0;right=0;align=left;spacingLeft=6;overflow=hidden;whiteSpace=wrap;html=1;" parent="UYoktTO1jZP03NETFvOB-5" vertex="1">
          <mxGeometry x="30" width="280" height="30" as="geometry">
            <mxRectangle width="280" height="30" as="alternateBounds" />
          </mxGeometry>
        </mxCell>
        <mxCell id="UYoktTO1jZP03NETFvOB-20" value="menues" style="shape=table;startSize=30;container=1;collapsible=1;childLayout=tableLayout;fixedRows=1;rowLines=0;fontStyle=1;align=center;resizeLast=1;html=1;" parent="1" vertex="1">
          <mxGeometry x="422" y="-4457" width="256" height="180" as="geometry" />
        </mxCell>
        <mxCell id="UYoktTO1jZP03NETFvOB-21" value="" style="shape=tableRow;horizontal=0;startSize=0;swimlaneHead=0;swimlaneBody=0;fillColor=none;collapsible=0;dropTarget=0;points=[[0,0.5],[1,0.5]];portConstraint=eastwest;top=0;left=0;right=0;bottom=1;" parent="UYoktTO1jZP03NETFvOB-20" vertex="1">
          <mxGeometry y="30" width="256" height="30" as="geometry" />
        </mxCell>
        <mxCell id="UYoktTO1jZP03NETFvOB-22" value="" style="shape=partialRectangle;connectable=0;fillColor=none;top=0;left=0;bottom=0;right=0;fontStyle=1;overflow=hidden;whiteSpace=wrap;html=1;" parent="UYoktTO1jZP03NETFvOB-21" vertex="1">
          <mxGeometry width="30" height="30" as="geometry">
            <mxRectangle width="30" height="30" as="alternateBounds" />
          </mxGeometry>
        </mxCell>
        <mxCell id="UYoktTO1jZP03NETFvOB-23" value="menu_id uuid" style="shape=partialRectangle;connectable=0;fillColor=none;top=0;left=0;bottom=0;right=0;align=left;spacingLeft=6;fontStyle=5;overflow=hidden;whiteSpace=wrap;html=1;" parent="UYoktTO1jZP03NETFvOB-21" vertex="1">
          <mxGeometry x="30" width="226" height="30" as="geometry">
            <mxRectangle width="226" height="30" as="alternateBounds" />
          </mxGeometry>
        </mxCell>
        <mxCell id="UYoktTO1jZP03NETFvOB-24" value="" style="shape=tableRow;horizontal=0;startSize=0;swimlaneHead=0;swimlaneBody=0;fillColor=none;collapsible=0;dropTarget=0;points=[[0,0.5],[1,0.5]];portConstraint=eastwest;top=0;left=0;right=0;bottom=0;" parent="UYoktTO1jZP03NETFvOB-20" vertex="1">
          <mxGeometry y="60" width="256" height="30" as="geometry" />
        </mxCell>
        <mxCell id="UYoktTO1jZP03NETFvOB-25" value="" style="shape=partialRectangle;connectable=0;fillColor=none;top=0;left=0;bottom=0;right=0;editable=1;overflow=hidden;whiteSpace=wrap;html=1;" parent="UYoktTO1jZP03NETFvOB-24" vertex="1">
          <mxGeometry width="30" height="30" as="geometry">
            <mxRectangle width="30" height="30" as="alternateBounds" />
          </mxGeometry>
        </mxCell>
        <mxCell id="UYoktTO1jZP03NETFvOB-26" value="menu_classification varchar not null" style="shape=partialRectangle;connectable=0;fillColor=none;top=0;left=0;bottom=0;right=0;align=left;spacingLeft=6;overflow=hidden;whiteSpace=wrap;html=1;" parent="UYoktTO1jZP03NETFvOB-24" vertex="1">
          <mxGeometry x="30" width="226" height="30" as="geometry">
            <mxRectangle width="226" height="30" as="alternateBounds" />
          </mxGeometry>
        </mxCell>
        <mxCell id="UYoktTO1jZP03NETFvOB-27" value="" style="shape=tableRow;horizontal=0;startSize=0;swimlaneHead=0;swimlaneBody=0;fillColor=none;collapsible=0;dropTarget=0;points=[[0,0.5],[1,0.5]];portConstraint=eastwest;top=0;left=0;right=0;bottom=0;" parent="UYoktTO1jZP03NETFvOB-20" vertex="1">
          <mxGeometry y="90" width="256" height="30" as="geometry" />
        </mxCell>
        <mxCell id="UYoktTO1jZP03NETFvOB-28" value="" style="shape=partialRectangle;connectable=0;fillColor=none;top=0;left=0;bottom=0;right=0;editable=1;overflow=hidden;whiteSpace=wrap;html=1;" parent="UYoktTO1jZP03NETFvOB-27" vertex="1">
          <mxGeometry width="30" height="30" as="geometry">
            <mxRectangle width="30" height="30" as="alternateBounds" />
          </mxGeometry>
        </mxCell>
        <mxCell id="UYoktTO1jZP03NETFvOB-29" value="menu_name varchar not null" style="shape=partialRectangle;connectable=0;fillColor=none;top=0;left=0;bottom=0;right=0;align=left;spacingLeft=6;overflow=hidden;whiteSpace=wrap;html=1;" parent="UYoktTO1jZP03NETFvOB-27" vertex="1">
          <mxGeometry x="30" width="226" height="30" as="geometry">
            <mxRectangle width="226" height="30" as="alternateBounds" />
          </mxGeometry>
        </mxCell>
        <mxCell id="UYoktTO1jZP03NETFvOB-30" value="" style="shape=tableRow;horizontal=0;startSize=0;swimlaneHead=0;swimlaneBody=0;fillColor=none;collapsible=0;dropTarget=0;points=[[0,0.5],[1,0.5]];portConstraint=eastwest;top=0;left=0;right=0;bottom=0;" parent="UYoktTO1jZP03NETFvOB-20" vertex="1">
          <mxGeometry y="120" width="256" height="30" as="geometry" />
        </mxCell>
        <mxCell id="UYoktTO1jZP03NETFvOB-31" value="" style="shape=partialRectangle;connectable=0;fillColor=none;top=0;left=0;bottom=0;right=0;editable=1;overflow=hidden;whiteSpace=wrap;html=1;" parent="UYoktTO1jZP03NETFvOB-30" vertex="1">
          <mxGeometry width="30" height="30" as="geometry">
            <mxRectangle width="30" height="30" as="alternateBounds" />
          </mxGeometry>
        </mxCell>
        <mxCell id="UYoktTO1jZP03NETFvOB-32" value="menu_price integer not null" style="shape=partialRectangle;connectable=0;fillColor=none;top=0;left=0;bottom=0;right=0;align=left;spacingLeft=6;overflow=hidden;whiteSpace=wrap;html=1;" parent="UYoktTO1jZP03NETFvOB-30" vertex="1">
          <mxGeometry x="30" width="226" height="30" as="geometry">
            <mxRectangle width="226" height="30" as="alternateBounds" />
          </mxGeometry>
        </mxCell>
        <mxCell id="UYoktTO1jZP03NETFvOB-33" style="shape=tableRow;horizontal=0;startSize=0;swimlaneHead=0;swimlaneBody=0;fillColor=none;collapsible=0;dropTarget=0;points=[[0,0.5],[1,0.5]];portConstraint=eastwest;top=0;left=0;right=0;bottom=0;" parent="UYoktTO1jZP03NETFvOB-20" vertex="1">
          <mxGeometry y="150" width="256" height="30" as="geometry" />
        </mxCell>
        <mxCell id="UYoktTO1jZP03NETFvOB-34" style="shape=partialRectangle;connectable=0;fillColor=none;top=0;left=0;bottom=0;right=0;editable=1;overflow=hidden;whiteSpace=wrap;html=1;" parent="UYoktTO1jZP03NETFvOB-33" vertex="1">
          <mxGeometry width="30" height="30" as="geometry">
            <mxRectangle width="30" height="30" as="alternateBounds" />
          </mxGeometry>
        </mxCell>
        <mxCell id="UYoktTO1jZP03NETFvOB-35" value="sale_flg boolean not null" style="shape=partialRectangle;connectable=0;fillColor=none;top=0;left=0;bottom=0;right=0;align=left;spacingLeft=6;overflow=hidden;whiteSpace=wrap;html=1;" parent="UYoktTO1jZP03NETFvOB-33" vertex="1">
          <mxGeometry x="30" width="226" height="30" as="geometry">
            <mxRectangle width="226" height="30" as="alternateBounds" />
          </mxGeometry>
        </mxCell>
        <mxCell id="UYoktTO1jZP03NETFvOB-36" value="seats" style="shape=table;startSize=30;container=1;collapsible=1;childLayout=tableLayout;fixedRows=1;rowLines=0;fontStyle=1;align=center;resizeLast=1;html=1;" parent="1" vertex="1">
          <mxGeometry x="683" y="-3974" width="238" height="150" as="geometry" />
        </mxCell>
        <mxCell id="UYoktTO1jZP03NETFvOB-37" value="" style="shape=tableRow;horizontal=0;startSize=0;swimlaneHead=0;swimlaneBody=0;fillColor=none;collapsible=0;dropTarget=0;points=[[0,0.5],[1,0.5]];portConstraint=eastwest;top=0;left=0;right=0;bottom=1;" parent="UYoktTO1jZP03NETFvOB-36" vertex="1">
          <mxGeometry y="30" width="238" height="30" as="geometry" />
        </mxCell>
        <mxCell id="UYoktTO1jZP03NETFvOB-38" value="PK" style="shape=partialRectangle;connectable=0;fillColor=none;top=0;left=0;bottom=0;right=0;fontStyle=1;overflow=hidden;whiteSpace=wrap;html=1;" parent="UYoktTO1jZP03NETFvOB-37" vertex="1">
          <mxGeometry width="30" height="30" as="geometry">
            <mxRectangle width="30" height="30" as="alternateBounds" />
          </mxGeometry>
        </mxCell>
        <mxCell id="UYoktTO1jZP03NETFvOB-39" value="seat_id integer" style="shape=partialRectangle;connectable=0;fillColor=none;top=0;left=0;bottom=0;right=0;align=left;spacingLeft=6;fontStyle=5;overflow=hidden;whiteSpace=wrap;html=1;" parent="UYoktTO1jZP03NETFvOB-37" vertex="1">
          <mxGeometry x="30" width="208" height="30" as="geometry">
            <mxRectangle width="208" height="30" as="alternateBounds" />
          </mxGeometry>
        </mxCell>
        <mxCell id="UYoktTO1jZP03NETFvOB-40" value="" style="shape=tableRow;horizontal=0;startSize=0;swimlaneHead=0;swimlaneBody=0;fillColor=none;collapsible=0;dropTarget=0;points=[[0,0.5],[1,0.5]];portConstraint=eastwest;top=0;left=0;right=0;bottom=0;" parent="UYoktTO1jZP03NETFvOB-36" vertex="1">
          <mxGeometry y="60" width="238" height="30" as="geometry" />
        </mxCell>
        <mxCell id="UYoktTO1jZP03NETFvOB-41" value="" style="shape=partialRectangle;connectable=0;fillColor=none;top=0;left=0;bottom=0;right=0;editable=1;overflow=hidden;whiteSpace=wrap;html=1;" parent="UYoktTO1jZP03NETFvOB-40" vertex="1">
          <mxGeometry width="30" height="30" as="geometry">
            <mxRectangle width="30" height="30" as="alternateBounds" />
          </mxGeometry>
        </mxCell>
        <mxCell id="UYoktTO1jZP03NETFvOB-42" value="vacant_seat_flg boolean not null" style="shape=partialRectangle;connectable=0;fillColor=none;top=0;left=0;bottom=0;right=0;align=left;spacingLeft=6;overflow=hidden;whiteSpace=wrap;html=1;" parent="UYoktTO1jZP03NETFvOB-40" vertex="1">
          <mxGeometry x="30" width="208" height="30" as="geometry">
            <mxRectangle width="208" height="30" as="alternateBounds" />
          </mxGeometry>
        </mxCell>
        <mxCell id="UYoktTO1jZP03NETFvOB-43" value="" style="shape=tableRow;horizontal=0;startSize=0;swimlaneHead=0;swimlaneBody=0;fillColor=none;collapsible=0;dropTarget=0;points=[[0,0.5],[1,0.5]];portConstraint=eastwest;top=0;left=0;right=0;bottom=0;" parent="UYoktTO1jZP03NETFvOB-36" vertex="1">
          <mxGeometry y="90" width="238" height="30" as="geometry" />
        </mxCell>
        <mxCell id="UYoktTO1jZP03NETFvOB-44" value="" style="shape=partialRectangle;connectable=0;fillColor=none;top=0;left=0;bottom=0;right=0;editable=1;overflow=hidden;whiteSpace=wrap;html=1;" parent="UYoktTO1jZP03NETFvOB-43" vertex="1">
          <mxGeometry width="30" height="30" as="geometry">
            <mxRectangle width="30" height="30" as="alternateBounds" />
          </mxGeometry>
        </mxCell>
        <mxCell id="UYoktTO1jZP03NETFvOB-45" value="number_of_people integer not null" style="shape=partialRectangle;connectable=0;fillColor=none;top=0;left=0;bottom=0;right=0;align=left;spacingLeft=6;overflow=hidden;whiteSpace=wrap;html=1;" parent="UYoktTO1jZP03NETFvOB-43" vertex="1">
          <mxGeometry x="30" width="208" height="30" as="geometry">
            <mxRectangle width="208" height="30" as="alternateBounds" />
          </mxGeometry>
        </mxCell>
        <mxCell id="UYoktTO1jZP03NETFvOB-46" value="" style="shape=tableRow;horizontal=0;startSize=0;swimlaneHead=0;swimlaneBody=0;fillColor=none;collapsible=0;dropTarget=0;points=[[0,0.5],[1,0.5]];portConstraint=eastwest;top=0;left=0;right=0;bottom=0;" parent="UYoktTO1jZP03NETFvOB-36" vertex="1">
          <mxGeometry y="120" width="238" height="30" as="geometry" />
        </mxCell>
        <mxCell id="UYoktTO1jZP03NETFvOB-47" value="" style="shape=partialRectangle;connectable=0;fillColor=none;top=0;left=0;bottom=0;right=0;editable=1;overflow=hidden;whiteSpace=wrap;html=1;" parent="UYoktTO1jZP03NETFvOB-46" vertex="1">
          <mxGeometry width="30" height="30" as="geometry">
            <mxRectangle width="30" height="30" as="alternateBounds" />
          </mxGeometry>
        </mxCell>
        <mxCell id="UYoktTO1jZP03NETFvOB-48" value="number_of_seats integer not null" style="shape=partialRectangle;connectable=0;fillColor=none;top=0;left=0;bottom=0;right=0;align=left;spacingLeft=6;overflow=hidden;whiteSpace=wrap;html=1;" parent="UYoktTO1jZP03NETFvOB-46" vertex="1">
          <mxGeometry x="30" width="208" height="30" as="geometry">
            <mxRectangle width="208" height="30" as="alternateBounds" />
          </mxGeometry>
        </mxCell>
        <mxCell id="UYoktTO1jZP03NETFvOB-52" value="customers" style="shape=table;startSize=30;container=1;collapsible=1;childLayout=tableLayout;fixedRows=1;rowLines=0;fontStyle=1;align=center;resizeLast=1;html=1;" parent="1" vertex="1">
          <mxGeometry x="347" y="-4239" width="238" height="270" as="geometry" />
        </mxCell>
        <mxCell id="UYoktTO1jZP03NETFvOB-53" value="" style="shape=tableRow;horizontal=0;startSize=0;swimlaneHead=0;swimlaneBody=0;fillColor=none;collapsible=0;dropTarget=0;points=[[0,0.5],[1,0.5]];portConstraint=eastwest;top=0;left=0;right=0;bottom=1;" parent="UYoktTO1jZP03NETFvOB-52" vertex="1">
          <mxGeometry y="30" width="238" height="30" as="geometry" />
        </mxCell>
        <mxCell id="UYoktTO1jZP03NETFvOB-54" value="PK" style="shape=partialRectangle;connectable=0;fillColor=none;top=0;left=0;bottom=0;right=0;fontStyle=1;overflow=hidden;whiteSpace=wrap;html=1;" parent="UYoktTO1jZP03NETFvOB-53" vertex="1">
          <mxGeometry width="30" height="30" as="geometry">
            <mxRectangle width="30" height="30" as="alternateBounds" />
          </mxGeometry>
        </mxCell>
        <mxCell id="UYoktTO1jZP03NETFvOB-55" value="customer_id uuid" style="shape=partialRectangle;connectable=0;fillColor=none;top=0;left=0;bottom=0;right=0;align=left;spacingLeft=6;fontStyle=5;overflow=hidden;whiteSpace=wrap;html=1;" parent="UYoktTO1jZP03NETFvOB-53" vertex="1">
          <mxGeometry x="30" width="208" height="30" as="geometry">
            <mxRectangle width="208" height="30" as="alternateBounds" />
          </mxGeometry>
        </mxCell>
        <mxCell id="UYoktTO1jZP03NETFvOB-56" value="" style="shape=tableRow;horizontal=0;startSize=0;swimlaneHead=0;swimlaneBody=0;fillColor=none;collapsible=0;dropTarget=0;points=[[0,0.5],[1,0.5]];portConstraint=eastwest;top=0;left=0;right=0;bottom=0;" parent="UYoktTO1jZP03NETFvOB-52" vertex="1">
          <mxGeometry y="60" width="238" height="30" as="geometry" />
        </mxCell>
        <mxCell id="UYoktTO1jZP03NETFvOB-57" value="" style="shape=partialRectangle;connectable=0;fillColor=none;top=0;left=0;bottom=0;right=0;editable=1;overflow=hidden;whiteSpace=wrap;html=1;" parent="UYoktTO1jZP03NETFvOB-56" vertex="1">
          <mxGeometry width="30" height="30" as="geometry">
            <mxRectangle width="30" height="30" as="alternateBounds" />
          </mxGeometry>
        </mxCell>
        <mxCell id="UYoktTO1jZP03NETFvOB-58" value="entry_time timestamp not null" style="shape=partialRectangle;connectable=0;fillColor=none;top=0;left=0;bottom=0;right=0;align=left;spacingLeft=6;overflow=hidden;whiteSpace=wrap;html=1;" parent="UYoktTO1jZP03NETFvOB-56" vertex="1">
          <mxGeometry x="30" width="208" height="30" as="geometry">
            <mxRectangle width="208" height="30" as="alternateBounds" />
          </mxGeometry>
        </mxCell>
        <mxCell id="UYoktTO1jZP03NETFvOB-59" value="" style="shape=tableRow;horizontal=0;startSize=0;swimlaneHead=0;swimlaneBody=0;fillColor=none;collapsible=0;dropTarget=0;points=[[0,0.5],[1,0.5]];portConstraint=eastwest;top=0;left=0;right=0;bottom=0;" parent="UYoktTO1jZP03NETFvOB-52" vertex="1">
          <mxGeometry y="90" width="238" height="30" as="geometry" />
        </mxCell>
        <mxCell id="UYoktTO1jZP03NETFvOB-60" value="" style="shape=partialRectangle;connectable=0;fillColor=none;top=0;left=0;bottom=0;right=0;editable=1;overflow=hidden;whiteSpace=wrap;html=1;" parent="UYoktTO1jZP03NETFvOB-59" vertex="1">
          <mxGeometry width="30" height="30" as="geometry">
            <mxRectangle width="30" height="30" as="alternateBounds" />
          </mxGeometry>
        </mxCell>
        <mxCell id="UYoktTO1jZP03NETFvOB-61" value="number_of_people integer not null" style="shape=partialRectangle;connectable=0;fillColor=none;top=0;left=0;bottom=0;right=0;align=left;spacingLeft=6;overflow=hidden;whiteSpace=wrap;html=1;" parent="UYoktTO1jZP03NETFvOB-59" vertex="1">
          <mxGeometry x="30" width="208" height="30" as="geometry">
            <mxRectangle width="208" height="30" as="alternateBounds" />
          </mxGeometry>
        </mxCell>
        <mxCell id="UYoktTO1jZP03NETFvOB-62" value="" style="shape=tableRow;horizontal=0;startSize=0;swimlaneHead=0;swimlaneBody=0;fillColor=none;collapsible=0;dropTarget=0;points=[[0,0.5],[1,0.5]];portConstraint=eastwest;top=0;left=0;right=0;bottom=0;" parent="UYoktTO1jZP03NETFvOB-52" vertex="1">
          <mxGeometry y="120" width="238" height="30" as="geometry" />
        </mxCell>
        <mxCell id="UYoktTO1jZP03NETFvOB-63" value="FK" style="shape=partialRectangle;connectable=0;fillColor=none;top=0;left=0;bottom=0;right=0;editable=1;overflow=hidden;whiteSpace=wrap;html=1;" parent="UYoktTO1jZP03NETFvOB-62" vertex="1">
          <mxGeometry width="30" height="30" as="geometry">
            <mxRectangle width="30" height="30" as="alternateBounds" />
          </mxGeometry>
        </mxCell>
        <mxCell id="UYoktTO1jZP03NETFvOB-64" value="seat_id integer not null" style="shape=partialRectangle;connectable=0;fillColor=none;top=0;left=0;bottom=0;right=0;align=left;spacingLeft=6;overflow=hidden;whiteSpace=wrap;html=1;" parent="UYoktTO1jZP03NETFvOB-62" vertex="1">
          <mxGeometry x="30" width="208" height="30" as="geometry">
            <mxRectangle width="208" height="30" as="alternateBounds" />
          </mxGeometry>
        </mxCell>
        <mxCell id="UYoktTO1jZP03NETFvOB-74" style="shape=tableRow;horizontal=0;startSize=0;swimlaneHead=0;swimlaneBody=0;fillColor=none;collapsible=0;dropTarget=0;points=[[0,0.5],[1,0.5]];portConstraint=eastwest;top=0;left=0;right=0;bottom=0;" parent="UYoktTO1jZP03NETFvOB-52" vertex="1">
          <mxGeometry y="150" width="238" height="30" as="geometry" />
        </mxCell>
        <mxCell id="UYoktTO1jZP03NETFvOB-75" style="shape=partialRectangle;connectable=0;fillColor=none;top=0;left=0;bottom=0;right=0;editable=1;overflow=hidden;whiteSpace=wrap;html=1;" parent="UYoktTO1jZP03NETFvOB-74" vertex="1">
          <mxGeometry width="30" height="30" as="geometry">
            <mxRectangle width="30" height="30" as="alternateBounds" />
          </mxGeometry>
        </mxCell>
        <mxCell id="UYoktTO1jZP03NETFvOB-76" value="exit_time timestamp" style="shape=partialRectangle;connectable=0;fillColor=none;top=0;left=0;bottom=0;right=0;align=left;spacingLeft=6;overflow=hidden;whiteSpace=wrap;html=1;" parent="UYoktTO1jZP03NETFvOB-74" vertex="1">
          <mxGeometry x="30" width="208" height="30" as="geometry">
            <mxRectangle width="208" height="30" as="alternateBounds" />
          </mxGeometry>
        </mxCell>
        <mxCell id="UYoktTO1jZP03NETFvOB-71" style="shape=tableRow;horizontal=0;startSize=0;swimlaneHead=0;swimlaneBody=0;fillColor=none;collapsible=0;dropTarget=0;points=[[0,0.5],[1,0.5]];portConstraint=eastwest;top=0;left=0;right=0;bottom=0;" parent="UYoktTO1jZP03NETFvOB-52" vertex="1">
          <mxGeometry y="180" width="238" height="30" as="geometry" />
        </mxCell>
        <mxCell id="UYoktTO1jZP03NETFvOB-72" style="shape=partialRectangle;connectable=0;fillColor=none;top=0;left=0;bottom=0;right=0;editable=1;overflow=hidden;whiteSpace=wrap;html=1;" parent="UYoktTO1jZP03NETFvOB-71" vertex="1">
          <mxGeometry width="30" height="30" as="geometry">
            <mxRectangle width="30" height="30" as="alternateBounds" />
          </mxGeometry>
        </mxCell>
        <mxCell id="UYoktTO1jZP03NETFvOB-73" value="payment_price integer" style="shape=partialRectangle;connectable=0;fillColor=none;top=0;left=0;bottom=0;right=0;align=left;spacingLeft=6;overflow=hidden;whiteSpace=wrap;html=1;" parent="UYoktTO1jZP03NETFvOB-71" vertex="1">
          <mxGeometry x="30" width="208" height="30" as="geometry">
            <mxRectangle width="208" height="30" as="alternateBounds" />
          </mxGeometry>
        </mxCell>
        <mxCell id="UYoktTO1jZP03NETFvOB-68" style="shape=tableRow;horizontal=0;startSize=0;swimlaneHead=0;swimlaneBody=0;fillColor=none;collapsible=0;dropTarget=0;points=[[0,0.5],[1,0.5]];portConstraint=eastwest;top=0;left=0;right=0;bottom=0;" parent="UYoktTO1jZP03NETFvOB-52" vertex="1">
          <mxGeometry y="210" width="238" height="30" as="geometry" />
        </mxCell>
        <mxCell id="UYoktTO1jZP03NETFvOB-69" value="" style="shape=partialRectangle;connectable=0;fillColor=none;top=0;left=0;bottom=0;right=0;editable=1;overflow=hidden;whiteSpace=wrap;html=1;" parent="UYoktTO1jZP03NETFvOB-68" vertex="1">
          <mxGeometry width="30" height="30" as="geometry">
            <mxRectangle width="30" height="30" as="alternateBounds" />
          </mxGeometry>
        </mxCell>
        <mxCell id="UYoktTO1jZP03NETFvOB-70" value="payment_method serial" style="shape=partialRectangle;connectable=0;fillColor=none;top=0;left=0;bottom=0;right=0;align=left;spacingLeft=6;overflow=hidden;whiteSpace=wrap;html=1;" parent="UYoktTO1jZP03NETFvOB-68" vertex="1">
          <mxGeometry x="30" width="208" height="30" as="geometry">
            <mxRectangle width="208" height="30" as="alternateBounds" />
          </mxGeometry>
        </mxCell>
        <mxCell id="UYoktTO1jZP03NETFvOB-65" style="shape=tableRow;horizontal=0;startSize=0;swimlaneHead=0;swimlaneBody=0;fillColor=none;collapsible=0;dropTarget=0;points=[[0,0.5],[1,0.5]];portConstraint=eastwest;top=0;left=0;right=0;bottom=0;" parent="UYoktTO1jZP03NETFvOB-52" vertex="1">
          <mxGeometry y="240" width="238" height="30" as="geometry" />
        </mxCell>
        <mxCell id="UYoktTO1jZP03NETFvOB-66" style="shape=partialRectangle;connectable=0;fillColor=none;top=0;left=0;bottom=0;right=0;editable=1;overflow=hidden;whiteSpace=wrap;html=1;" parent="UYoktTO1jZP03NETFvOB-65" vertex="1">
          <mxGeometry width="30" height="30" as="geometry">
            <mxRectangle width="30" height="30" as="alternateBounds" />
          </mxGeometry>
        </mxCell>
        <mxCell id="UYoktTO1jZP03NETFvOB-67" value="check_time timestamp" style="shape=partialRectangle;connectable=0;fillColor=none;top=0;left=0;bottom=0;right=0;align=left;spacingLeft=6;overflow=hidden;whiteSpace=wrap;html=1;" parent="UYoktTO1jZP03NETFvOB-65" vertex="1">
          <mxGeometry x="30" width="208" height="30" as="geometry">
            <mxRectangle width="208" height="30" as="alternateBounds" />
          </mxGeometry>
        </mxCell>
        <mxCell id="UYoktTO1jZP03NETFvOB-77" value="orders" style="shape=table;startSize=30;container=1;collapsible=1;childLayout=tableLayout;fixedRows=1;rowLines=0;fontStyle=1;align=center;resizeLast=1;html=1;" parent="1" vertex="1">
          <mxGeometry x="1008" y="-4192" width="304" height="270" as="geometry" />
        </mxCell>
        <mxCell id="UYoktTO1jZP03NETFvOB-102" style="shape=tableRow;horizontal=0;startSize=0;swimlaneHead=0;swimlaneBody=0;fillColor=none;collapsible=0;dropTarget=0;points=[[0,0.5],[1,0.5]];portConstraint=eastwest;top=0;left=0;right=0;bottom=0;" parent="UYoktTO1jZP03NETFvOB-77" vertex="1">
          <mxGeometry y="30" width="304" height="30" as="geometry" />
        </mxCell>
        <mxCell id="UYoktTO1jZP03NETFvOB-103" style="shape=partialRectangle;connectable=0;fillColor=none;top=0;left=0;bottom=0;right=0;editable=1;overflow=hidden;whiteSpace=wrap;html=1;" parent="UYoktTO1jZP03NETFvOB-102" vertex="1">
          <mxGeometry width="30" height="30" as="geometry">
            <mxRectangle width="30" height="30" as="alternateBounds" />
          </mxGeometry>
        </mxCell>
        <mxCell id="UYoktTO1jZP03NETFvOB-104" value="order_time timestamp" style="shape=partialRectangle;connectable=0;fillColor=none;top=0;left=0;bottom=0;right=0;align=left;spacingLeft=6;overflow=hidden;whiteSpace=wrap;html=1;" parent="UYoktTO1jZP03NETFvOB-102" vertex="1">
          <mxGeometry x="30" width="274" height="30" as="geometry">
            <mxRectangle width="274" height="30" as="alternateBounds" />
          </mxGeometry>
        </mxCell>
        <mxCell id="UYoktTO1jZP03NETFvOB-81" value="" style="shape=tableRow;horizontal=0;startSize=0;swimlaneHead=0;swimlaneBody=0;fillColor=none;collapsible=0;dropTarget=0;points=[[0,0.5],[1,0.5]];portConstraint=eastwest;top=0;left=0;right=0;bottom=0;" parent="UYoktTO1jZP03NETFvOB-77" vertex="1">
          <mxGeometry y="60" width="304" height="30" as="geometry" />
        </mxCell>
        <mxCell id="UYoktTO1jZP03NETFvOB-82" value="FK" style="shape=partialRectangle;connectable=0;fillColor=none;top=0;left=0;bottom=0;right=0;editable=1;overflow=hidden;whiteSpace=wrap;html=1;" parent="UYoktTO1jZP03NETFvOB-81" vertex="1">
          <mxGeometry width="30" height="30" as="geometry">
            <mxRectangle width="30" height="30" as="alternateBounds" />
          </mxGeometry>
        </mxCell>
        <mxCell id="UYoktTO1jZP03NETFvOB-83" value="customer_id uuid not null" style="shape=partialRectangle;connectable=0;fillColor=none;top=0;left=0;bottom=0;right=0;align=left;spacingLeft=6;overflow=hidden;whiteSpace=wrap;html=1;" parent="UYoktTO1jZP03NETFvOB-81" vertex="1">
          <mxGeometry x="30" width="274" height="30" as="geometry">
            <mxRectangle width="274" height="30" as="alternateBounds" />
          </mxGeometry>
        </mxCell>
        <mxCell id="UYoktTO1jZP03NETFvOB-84" value="" style="shape=tableRow;horizontal=0;startSize=0;swimlaneHead=0;swimlaneBody=0;fillColor=none;collapsible=0;dropTarget=0;points=[[0,0.5],[1,0.5]];portConstraint=eastwest;top=0;left=0;right=0;bottom=0;" parent="UYoktTO1jZP03NETFvOB-77" vertex="1">
          <mxGeometry y="90" width="304" height="30" as="geometry" />
        </mxCell>
        <mxCell id="UYoktTO1jZP03NETFvOB-85" value="" style="shape=partialRectangle;connectable=0;fillColor=none;top=0;left=0;bottom=0;right=0;editable=1;overflow=hidden;whiteSpace=wrap;html=1;" parent="UYoktTO1jZP03NETFvOB-84" vertex="1">
          <mxGeometry width="30" height="30" as="geometry">
            <mxRectangle width="30" height="30" as="alternateBounds" />
          </mxGeometry>
        </mxCell>
        <mxCell id="UYoktTO1jZP03NETFvOB-86" value="menu_id uuid not null" style="shape=partialRectangle;connectable=0;fillColor=none;top=0;left=0;bottom=0;right=0;align=left;spacingLeft=6;overflow=hidden;whiteSpace=wrap;html=1;" parent="UYoktTO1jZP03NETFvOB-84" vertex="1">
          <mxGeometry x="30" width="274" height="30" as="geometry">
            <mxRectangle width="274" height="30" as="alternateBounds" />
          </mxGeometry>
        </mxCell>
        <mxCell id="UYoktTO1jZP03NETFvOB-87" value="" style="shape=tableRow;horizontal=0;startSize=0;swimlaneHead=0;swimlaneBody=0;fillColor=none;collapsible=0;dropTarget=0;points=[[0,0.5],[1,0.5]];portConstraint=eastwest;top=0;left=0;right=0;bottom=0;" parent="UYoktTO1jZP03NETFvOB-77" vertex="1">
          <mxGeometry y="120" width="304" height="30" as="geometry" />
        </mxCell>
        <mxCell id="UYoktTO1jZP03NETFvOB-88" value="" style="shape=partialRectangle;connectable=0;fillColor=none;top=0;left=0;bottom=0;right=0;editable=1;overflow=hidden;whiteSpace=wrap;html=1;" parent="UYoktTO1jZP03NETFvOB-87" vertex="1">
          <mxGeometry width="30" height="30" as="geometry">
            <mxRectangle width="30" height="30" as="alternateBounds" />
          </mxGeometry>
        </mxCell>
        <mxCell id="UYoktTO1jZP03NETFvOB-89" value="menu_price integer not null" style="shape=partialRectangle;connectable=0;fillColor=none;top=0;left=0;bottom=0;right=0;align=left;spacingLeft=6;overflow=hidden;whiteSpace=wrap;html=1;" parent="UYoktTO1jZP03NETFvOB-87" vertex="1">
          <mxGeometry x="30" width="274" height="30" as="geometry">
            <mxRectangle width="274" height="30" as="alternateBounds" />
          </mxGeometry>
        </mxCell>
        <mxCell id="UYoktTO1jZP03NETFvOB-90" style="shape=tableRow;horizontal=0;startSize=0;swimlaneHead=0;swimlaneBody=0;fillColor=none;collapsible=0;dropTarget=0;points=[[0,0.5],[1,0.5]];portConstraint=eastwest;top=0;left=0;right=0;bottom=0;" parent="UYoktTO1jZP03NETFvOB-77" vertex="1">
          <mxGeometry y="150" width="304" height="30" as="geometry" />
        </mxCell>
        <mxCell id="UYoktTO1jZP03NETFvOB-91" style="shape=partialRectangle;connectable=0;fillColor=none;top=0;left=0;bottom=0;right=0;editable=1;overflow=hidden;whiteSpace=wrap;html=1;" parent="UYoktTO1jZP03NETFvOB-90" vertex="1">
          <mxGeometry width="30" height="30" as="geometry">
            <mxRectangle width="30" height="30" as="alternateBounds" />
          </mxGeometry>
        </mxCell>
        <mxCell id="UYoktTO1jZP03NETFvOB-92" value="number_of_orders integer not null" style="shape=partialRectangle;connectable=0;fillColor=none;top=0;left=0;bottom=0;right=0;align=left;spacingLeft=6;overflow=hidden;whiteSpace=wrap;html=1;" parent="UYoktTO1jZP03NETFvOB-90" vertex="1">
          <mxGeometry x="30" width="274" height="30" as="geometry">
            <mxRectangle width="274" height="30" as="alternateBounds" />
          </mxGeometry>
        </mxCell>
        <mxCell id="UYoktTO1jZP03NETFvOB-93" style="shape=tableRow;horizontal=0;startSize=0;swimlaneHead=0;swimlaneBody=0;fillColor=none;collapsible=0;dropTarget=0;points=[[0,0.5],[1,0.5]];portConstraint=eastwest;top=0;left=0;right=0;bottom=0;" parent="UYoktTO1jZP03NETFvOB-77" vertex="1">
          <mxGeometry y="180" width="304" height="30" as="geometry" />
        </mxCell>
        <mxCell id="UYoktTO1jZP03NETFvOB-94" value="FK" style="shape=partialRectangle;connectable=0;fillColor=none;top=0;left=0;bottom=0;right=0;editable=1;overflow=hidden;whiteSpace=wrap;html=1;" parent="UYoktTO1jZP03NETFvOB-93" vertex="1">
          <mxGeometry width="30" height="30" as="geometry">
            <mxRectangle width="30" height="30" as="alternateBounds" />
          </mxGeometry>
        </mxCell>
        <mxCell id="UYoktTO1jZP03NETFvOB-95" value="seat_id integer not null" style="shape=partialRectangle;connectable=0;fillColor=none;top=0;left=0;bottom=0;right=0;align=left;spacingLeft=6;overflow=hidden;whiteSpace=wrap;html=1;" parent="UYoktTO1jZP03NETFvOB-93" vertex="1">
          <mxGeometry x="30" width="274" height="30" as="geometry">
            <mxRectangle width="274" height="30" as="alternateBounds" />
          </mxGeometry>
        </mxCell>
        <mxCell id="UYoktTO1jZP03NETFvOB-96" style="shape=tableRow;horizontal=0;startSize=0;swimlaneHead=0;swimlaneBody=0;fillColor=none;collapsible=0;dropTarget=0;points=[[0,0.5],[1,0.5]];portConstraint=eastwest;top=0;left=0;right=0;bottom=0;" parent="UYoktTO1jZP03NETFvOB-77" vertex="1">
          <mxGeometry y="210" width="304" height="30" as="geometry" />
        </mxCell>
        <mxCell id="UYoktTO1jZP03NETFvOB-97" style="shape=partialRectangle;connectable=0;fillColor=none;top=0;left=0;bottom=0;right=0;editable=1;overflow=hidden;whiteSpace=wrap;html=1;" parent="UYoktTO1jZP03NETFvOB-96" vertex="1">
          <mxGeometry width="30" height="30" as="geometry">
            <mxRectangle width="30" height="30" as="alternateBounds" />
          </mxGeometry>
        </mxCell>
        <mxCell id="UYoktTO1jZP03NETFvOB-98" value="distributed_flg boolean not null default false" style="shape=partialRectangle;connectable=0;fillColor=none;top=0;left=0;bottom=0;right=0;align=left;spacingLeft=6;overflow=hidden;whiteSpace=wrap;html=1;" parent="UYoktTO1jZP03NETFvOB-96" vertex="1">
          <mxGeometry x="30" width="274" height="30" as="geometry">
            <mxRectangle width="274" height="30" as="alternateBounds" />
          </mxGeometry>
        </mxCell>
        <mxCell id="UYoktTO1jZP03NETFvOB-99" style="shape=tableRow;horizontal=0;startSize=0;swimlaneHead=0;swimlaneBody=0;fillColor=none;collapsible=0;dropTarget=0;points=[[0,0.5],[1,0.5]];portConstraint=eastwest;top=0;left=0;right=0;bottom=0;" parent="UYoktTO1jZP03NETFvOB-77" vertex="1">
          <mxGeometry y="240" width="304" height="30" as="geometry" />
        </mxCell>
        <mxCell id="UYoktTO1jZP03NETFvOB-100" style="shape=partialRectangle;connectable=0;fillColor=none;top=0;left=0;bottom=0;right=0;editable=1;overflow=hidden;whiteSpace=wrap;html=1;" parent="UYoktTO1jZP03NETFvOB-99" vertex="1">
          <mxGeometry width="30" height="30" as="geometry">
            <mxRectangle width="30" height="30" as="alternateBounds" />
          </mxGeometry>
        </mxCell>
        <mxCell id="UYoktTO1jZP03NETFvOB-101" value="received_flg boolean not null default false" style="shape=partialRectangle;connectable=0;fillColor=none;top=0;left=0;bottom=0;right=0;align=left;spacingLeft=6;overflow=hidden;whiteSpace=wrap;html=1;" parent="UYoktTO1jZP03NETFvOB-99" vertex="1">
          <mxGeometry x="30" width="274" height="30" as="geometry">
            <mxRectangle width="274" height="30" as="alternateBounds" />
          </mxGeometry>
        </mxCell>
        <mxCell id="UYoktTO1jZP03NETFvOB-108" value="create_partition_for_orders.bat" style="rounded=0;whiteSpace=wrap;html=1;" parent="1" vertex="1">
          <mxGeometry x="556.75" y="-1405" width="186" height="33" as="geometry" />
        </mxCell>
        <mxCell id="UYoktTO1jZP03NETFvOB-109" value="orders_partition_{yyyy}_{mm}" style="rounded=0;whiteSpace=wrap;html=1;" parent="1" vertex="1">
          <mxGeometry x="812.75" y="-1405" width="175" height="33" as="geometry" />
        </mxCell>
        <mxCell id="UYoktTO1jZP03NETFvOB-110" value="" style="endArrow=classic;html=1;rounded=0;exitX=1;exitY=0.5;exitDx=0;exitDy=0;entryX=0;entryY=0.5;entryDx=0;entryDy=0;" parent="1" source="UYoktTO1jZP03NETFvOB-108" target="UYoktTO1jZP03NETFvOB-109" edge="1">
          <mxGeometry width="50" height="50" relative="1" as="geometry">
            <mxPoint x="780.75" y="-1399" as="sourcePoint" />
            <mxPoint x="780.75" y="-1180" as="targetPoint" />
          </mxGeometry>
        </mxCell>
        <mxCell id="UYoktTO1jZP03NETFvOB-112" value="f(x)" style="rounded=0;whiteSpace=wrap;html=1;" parent="1" vertex="1">
          <mxGeometry x="477.25" y="-2080" width="95" height="33" as="geometry" />
        </mxCell>
        <mxCell id="UYoktTO1jZP03NETFvOB-113" value="" style="endArrow=classic;html=1;rounded=0;exitX=0.5;exitY=1;exitDx=0;exitDy=0;entryX=0.5;entryY=0;entryDx=0;entryDy=0;" parent="1" source="UYoktTO1jZP03NETFvOB-112" target="UYoktTO1jZP03NETFvOB-125" edge="1">
          <mxGeometry width="50" height="50" relative="1" as="geometry">
            <mxPoint x="556.75" y="-2168" as="sourcePoint" />
            <mxPoint x="524.75" y="-2087" as="targetPoint" />
          </mxGeometry>
        </mxCell>
        <mxCell id="UYoktTO1jZP03NETFvOB-120" value="座席券発行" style="rounded=0;whiteSpace=wrap;html=1;" parent="1" vertex="1">
          <mxGeometry x="476.25" y="-1940" width="97" height="33" as="geometry" />
        </mxCell>
        <mxCell id="UYoktTO1jZP03NETFvOB-125" value="案内可能" style="shape=rhombus;perimeter=rhombusPerimeter;whiteSpace=wrap;html=1;align=center;" parent="1" vertex="1">
          <mxGeometry x="464.75" y="-2014" width="120" height="43" as="geometry" />
        </mxCell>
        <mxCell id="UYoktTO1jZP03NETFvOB-126" value="整理券発行" style="rounded=0;whiteSpace=wrap;html=1;" parent="1" vertex="1">
          <mxGeometry x="637.75" y="-2009" width="84" height="33" as="geometry" />
        </mxCell>
        <mxCell id="UYoktTO1jZP03NETFvOB-128" value="" style="endArrow=classic;html=1;rounded=0;exitX=0.5;exitY=1;exitDx=0;exitDy=0;entryX=0.5;entryY=0;entryDx=0;entryDy=0;" parent="1" source="UYoktTO1jZP03NETFvOB-125" target="UYoktTO1jZP03NETFvOB-120" edge="1">
          <mxGeometry width="50" height="50" relative="1" as="geometry">
            <mxPoint x="583.75" y="-1946" as="sourcePoint" />
            <mxPoint x="524.75" y="-1935" as="targetPoint" />
          </mxGeometry>
        </mxCell>
        <mxCell id="UYoktTO1jZP03NETFvOB-129" value="" style="endArrow=classic;html=1;rounded=0;exitX=1;exitY=0.5;exitDx=0;exitDy=0;entryX=0;entryY=0.5;entryDx=0;entryDy=0;" parent="1" source="UYoktTO1jZP03NETFvOB-125" target="UYoktTO1jZP03NETFvOB-126" edge="1">
          <mxGeometry width="50" height="50" relative="1" as="geometry">
            <mxPoint x="610.75" y="-1990" as="sourcePoint" />
            <mxPoint x="610.75" y="-1954" as="targetPoint" />
          </mxGeometry>
        </mxCell>
        <mxCell id="UYoktTO1jZP03NETFvOB-130" value="insert" style="text;html=1;strokeColor=none;fillColor=none;align=center;verticalAlign=middle;whiteSpace=wrap;rounded=0;" parent="1" vertex="1">
          <mxGeometry x="528" y="-1603" width="68" height="20" as="geometry" />
        </mxCell>
        <mxCell id="UYoktTO1jZP03NETFvOB-131" value="false" style="text;html=1;strokeColor=none;fillColor=none;align=center;verticalAlign=middle;whiteSpace=wrap;rounded=0;" parent="1" vertex="1">
          <mxGeometry x="552.75" y="-2026" width="49" height="30" as="geometry" />
        </mxCell>
        <mxCell id="UYoktTO1jZP03NETFvOB-132" value="true" style="text;html=1;strokeColor=none;fillColor=none;align=center;verticalAlign=middle;whiteSpace=wrap;rounded=0;" parent="1" vertex="1">
          <mxGeometry x="460.75" y="-1988" width="49" height="30" as="geometry" />
        </mxCell>
        <mxCell id="UYoktTO1jZP03NETFvOB-134" value="welcome_trig" style="rounded=0;whiteSpace=wrap;html=1;" parent="1" vertex="1">
          <mxGeometry x="477.25" y="-1705" width="95" height="33" as="geometry" />
        </mxCell>
        <mxCell id="UYoktTO1jZP03NETFvOB-135" value="welcome_func" style="rounded=0;whiteSpace=wrap;html=1;" parent="1" vertex="1">
          <mxGeometry x="477.25" y="-1642" width="95" height="33" as="geometry" />
        </mxCell>
        <mxCell id="UYoktTO1jZP03NETFvOB-136" value="customers" style="rounded=0;whiteSpace=wrap;html=1;" parent="1" vertex="1">
          <mxGeometry x="477.25" y="-1577" width="95" height="33" as="geometry" />
        </mxCell>
        <mxCell id="UYoktTO1jZP03NETFvOB-137" value="" style="endArrow=classic;html=1;rounded=0;entryX=0.5;entryY=0;entryDx=0;entryDy=0;exitX=0.5;exitY=1;exitDx=0;exitDy=0;" parent="1" source="UYoktTO1jZP03NETFvOB-134" target="UYoktTO1jZP03NETFvOB-135" edge="1">
          <mxGeometry width="50" height="50" relative="1" as="geometry">
            <mxPoint x="515.25" y="-1667" as="sourcePoint" />
            <mxPoint x="525.25" y="-1636" as="targetPoint" />
          </mxGeometry>
        </mxCell>
        <mxCell id="UYoktTO1jZP03NETFvOB-138" value="" style="endArrow=classic;html=1;rounded=0;entryX=0.5;entryY=0;entryDx=0;entryDy=0;exitX=0.5;exitY=1;exitDx=0;exitDy=0;" parent="1" source="UYoktTO1jZP03NETFvOB-135" target="UYoktTO1jZP03NETFvOB-136" edge="1">
          <mxGeometry width="50" height="50" relative="1" as="geometry">
            <mxPoint x="525.7399999999998" y="-1602" as="sourcePoint" />
            <mxPoint x="525.7399999999998" y="-1572" as="targetPoint" />
          </mxGeometry>
        </mxCell>
        <mxCell id="UYoktTO1jZP03NETFvOB-140" value="座席案内" style="shape=umlFrame;whiteSpace=wrap;html=1;pointerEvents=0;width=150;height=30;" parent="1" vertex="1">
          <mxGeometry x="430" y="-2145" width="313.75" height="632" as="geometry" />
        </mxCell>
        <mxCell id="UYoktTO1jZP03NETFvOB-143" value="vacant_seat_flg&lt;br&gt;true -&amp;gt; false" style="shape=rhombus;perimeter=rhombusPerimeter;whiteSpace=wrap;html=1;align=center;" parent="1" vertex="1">
          <mxGeometry x="449.25" y="-1807" width="151" height="70" as="geometry" />
        </mxCell>
        <mxCell id="UYoktTO1jZP03NETFvOB-144" value="" style="endArrow=classic;html=1;rounded=0;exitX=0.5;exitY=1;exitDx=0;exitDy=0;entryX=0.5;entryY=0;entryDx=0;entryDy=0;" parent="1" source="UYoktTO1jZP03NETFvOB-143" target="UYoktTO1jZP03NETFvOB-134" edge="1">
          <mxGeometry width="50" height="50" relative="1" as="geometry">
            <mxPoint x="526.25" y="-1671" as="sourcePoint" />
            <mxPoint x="544.25" y="-1709" as="targetPoint" />
          </mxGeometry>
        </mxCell>
        <mxCell id="UYoktTO1jZP03NETFvOB-145" value="true" style="text;html=1;strokeColor=none;fillColor=none;align=center;verticalAlign=middle;whiteSpace=wrap;rounded=0;" parent="1" vertex="1">
          <mxGeometry x="457" y="-1754" width="49" height="30" as="geometry" />
        </mxCell>
        <mxCell id="UYoktTO1jZP03NETFvOB-147" value="seats" style="rounded=0;whiteSpace=wrap;html=1;" parent="1" vertex="1">
          <mxGeometry x="637.75" y="-2080" width="85" height="33" as="geometry" />
        </mxCell>
        <mxCell id="UYoktTO1jZP03NETFvOB-149" value="seats" style="rounded=0;whiteSpace=wrap;html=1;" parent="1" vertex="1">
          <mxGeometry x="477.25" y="-1872" width="95" height="33" as="geometry" />
        </mxCell>
        <mxCell id="UYoktTO1jZP03NETFvOB-150" value="" style="endArrow=classic;html=1;rounded=0;exitX=0.5;exitY=1;exitDx=0;exitDy=0;entryX=0.5;entryY=0;entryDx=0;entryDy=0;" parent="1" source="UYoktTO1jZP03NETFvOB-149" target="UYoktTO1jZP03NETFvOB-143" edge="1">
          <mxGeometry width="50" height="50" relative="1" as="geometry">
            <mxPoint x="526.25" y="-1736" as="sourcePoint" />
            <mxPoint x="526.25" y="-1704" as="targetPoint" />
          </mxGeometry>
        </mxCell>
        <mxCell id="UYoktTO1jZP03NETFvOB-153" value="" style="endArrow=classic;html=1;rounded=0;exitX=0.5;exitY=1;exitDx=0;exitDy=0;entryX=0.5;entryY=0;entryDx=0;entryDy=0;" parent="1" source="UYoktTO1jZP03NETFvOB-120" target="UYoktTO1jZP03NETFvOB-149" edge="1">
          <mxGeometry width="50" height="50" relative="1" as="geometry">
            <mxPoint x="528.75" y="-1897" as="sourcePoint" />
            <mxPoint x="524.75" y="-1875" as="targetPoint" />
          </mxGeometry>
        </mxCell>
        <mxCell id="UYoktTO1jZP03NETFvOB-154" value="update" style="text;html=1;strokeColor=none;fillColor=none;align=center;verticalAlign=middle;whiteSpace=wrap;rounded=0;" parent="1" vertex="1">
          <mxGeometry x="537" y="-1900" width="43" height="20" as="geometry" />
        </mxCell>
        <mxCell id="UYoktTO1jZP03NETFvOB-155" value="get_seat_number" style="rounded=0;whiteSpace=wrap;html=1;" parent="1" vertex="1">
          <mxGeometry x="1046.25" y="-2055" width="119.5" height="33" as="geometry" />
        </mxCell>
        <mxCell id="UYoktTO1jZP03NETFvOB-156" value="get_menu_price" style="rounded=0;whiteSpace=wrap;html=1;" parent="1" vertex="1">
          <mxGeometry x="1046.25" y="-2007" width="119.5" height="33" as="geometry" />
        </mxCell>
        <mxCell id="UYoktTO1jZP03NETFvOB-157" value="商品注文" style="shape=umlFrame;whiteSpace=wrap;html=1;pointerEvents=0;width=150;height=30;" parent="1" vertex="1">
          <mxGeometry x="850.25" y="-2102" width="347.5" height="211" as="geometry" />
        </mxCell>
        <mxCell id="UYoktTO1jZP03NETFvOB-158" value="orders" style="rounded=0;whiteSpace=wrap;html=1;" parent="1" vertex="1">
          <mxGeometry x="880.25" y="-1953" width="95" height="33" as="geometry" />
        </mxCell>
        <mxCell id="UYoktTO1jZP03NETFvOB-159" value="f(x)" style="rounded=0;whiteSpace=wrap;html=1;" parent="1" vertex="1">
          <mxGeometry x="880.25" y="-2028" width="95" height="33" as="geometry" />
        </mxCell>
        <mxCell id="UYoktTO1jZP03NETFvOB-161" value="" style="endArrow=classic;html=1;rounded=0;entryX=0.5;entryY=0;entryDx=0;entryDy=0;exitX=0.5;exitY=1;exitDx=0;exitDy=0;" parent="1" source="UYoktTO1jZP03NETFvOB-159" target="UYoktTO1jZP03NETFvOB-158" edge="1">
          <mxGeometry width="50" height="50" relative="1" as="geometry">
            <mxPoint x="935.25" y="-1970" as="sourcePoint" />
            <mxPoint x="935.25" y="-1940" as="targetPoint" />
          </mxGeometry>
        </mxCell>
        <mxCell id="UYoktTO1jZP03NETFvOB-164" value="insert" style="text;html=1;strokeColor=none;fillColor=none;align=center;verticalAlign=middle;whiteSpace=wrap;rounded=0;" parent="1" vertex="1">
          <mxGeometry x="918.25" y="-1987" width="68" height="20" as="geometry" />
        </mxCell>
        <mxCell id="UYoktTO1jZP03NETFvOB-165" value="" style="endArrow=oval;dashed=1;html=1;rounded=0;exitX=1;exitY=0.5;exitDx=0;exitDy=0;entryX=0;entryY=0.5;entryDx=0;entryDy=0;startArrow=oval;startFill=0;endFill=0;" parent="1" source="UYoktTO1jZP03NETFvOB-112" target="UYoktTO1jZP03NETFvOB-147" edge="1">
          <mxGeometry width="50" height="50" relative="1" as="geometry">
            <mxPoint x="620.75" y="-2056" as="sourcePoint" />
            <mxPoint x="670.75" y="-2106" as="targetPoint" />
          </mxGeometry>
        </mxCell>
        <mxCell id="UYoktTO1jZP03NETFvOB-166" value="select" style="text;html=1;strokeColor=none;fillColor=none;align=center;verticalAlign=middle;whiteSpace=wrap;rounded=0;" parent="1" vertex="1">
          <mxGeometry x="576.75" y="-2085" width="52.5" height="20" as="geometry" />
        </mxCell>
        <mxCell id="UYoktTO1jZP03NETFvOB-167" value="" style="endArrow=oval;dashed=1;html=1;rounded=0;exitX=1;exitY=0.5;exitDx=0;exitDy=0;entryX=0;entryY=0.5;entryDx=0;entryDy=0;startArrow=oval;startFill=0;endFill=0;" parent="1" source="UYoktTO1jZP03NETFvOB-159" target="UYoktTO1jZP03NETFvOB-155" edge="1">
          <mxGeometry width="50" height="50" relative="1" as="geometry">
            <mxPoint x="1012.75" y="-2015" as="sourcePoint" />
            <mxPoint x="1079.75" y="-2015" as="targetPoint" />
          </mxGeometry>
        </mxCell>
        <mxCell id="UYoktTO1jZP03NETFvOB-169" value="" style="endArrow=oval;dashed=1;html=1;rounded=0;entryX=0;entryY=0.5;entryDx=0;entryDy=0;startArrow=oval;startFill=0;endFill=0;exitX=1;exitY=0.5;exitDx=0;exitDy=0;" parent="1" source="UYoktTO1jZP03NETFvOB-159" target="UYoktTO1jZP03NETFvOB-156" edge="1">
          <mxGeometry width="50" height="50" relative="1" as="geometry">
            <mxPoint x="973.25" y="-2012" as="sourcePoint" />
            <mxPoint x="1043.25" y="-2060" as="targetPoint" />
          </mxGeometry>
        </mxCell>
        <mxCell id="UYoktTO1jZP03NETFvOB-172" value="会計" style="shape=umlFrame;whiteSpace=wrap;html=1;pointerEvents=0;width=56;height=28;" parent="1" vertex="1">
          <mxGeometry x="895" y="-1791" width="198" height="335" as="geometry" />
        </mxCell>
        <mxCell id="UYoktTO1jZP03NETFvOB-174" value="f(x)" style="rounded=0;whiteSpace=wrap;html=1;" parent="1" vertex="1">
          <mxGeometry x="934.5" y="-1734" width="118" height="33" as="geometry" />
        </mxCell>
        <mxCell id="UYoktTO1jZP03NETFvOB-179" value="please_check_trig" style="rounded=0;whiteSpace=wrap;html=1;" parent="1" vertex="1">
          <mxGeometry x="934" y="-1666" width="118.5" height="33" as="geometry" />
        </mxCell>
        <mxCell id="UYoktTO1jZP03NETFvOB-181" value="" style="endArrow=classic;html=1;rounded=0;entryX=0.5;entryY=0;entryDx=0;entryDy=0;exitX=0.5;exitY=1;exitDx=0;exitDy=0;" parent="1" source="UYoktTO1jZP03NETFvOB-174" target="UYoktTO1jZP03NETFvOB-179" edge="1">
          <mxGeometry width="50" height="50" relative="1" as="geometry">
            <mxPoint x="993.25" y="-1704" as="sourcePoint" />
            <mxPoint x="1123.5" y="-1720" as="targetPoint" />
          </mxGeometry>
        </mxCell>
        <mxCell id="UYoktTO1jZP03NETFvOB-183" value="select" style="text;html=1;strokeColor=none;fillColor=none;align=center;verticalAlign=middle;whiteSpace=wrap;rounded=0;" parent="1" vertex="1">
          <mxGeometry x="984.25" y="-2053" width="52.5" height="20" as="geometry" />
        </mxCell>
        <mxCell id="UYoktTO1jZP03NETFvOB-184" value="select" style="text;html=1;strokeColor=none;fillColor=none;align=center;verticalAlign=middle;whiteSpace=wrap;rounded=0;" parent="1" vertex="1">
          <mxGeometry x="984.25" y="-1995" width="52.5" height="20" as="geometry" />
        </mxCell>
        <mxCell id="UYoktTO1jZP03NETFvOB-185" value="please_check_func" style="rounded=0;whiteSpace=wrap;html=1;" parent="1" vertex="1">
          <mxGeometry x="934" y="-1595" width="118.5" height="33" as="geometry" />
        </mxCell>
        <mxCell id="UYoktTO1jZP03NETFvOB-186" value="" style="endArrow=classic;html=1;rounded=0;entryX=0.5;entryY=0;entryDx=0;entryDy=0;exitX=0.5;exitY=1;exitDx=0;exitDy=0;" parent="1" source="UYoktTO1jZP03NETFvOB-179" target="UYoktTO1jZP03NETFvOB-185" edge="1">
          <mxGeometry width="50" height="50" relative="1" as="geometry">
            <mxPoint x="994.5" y="-1703" as="sourcePoint" />
            <mxPoint x="994.5" y="-1665" as="targetPoint" />
          </mxGeometry>
        </mxCell>
        <mxCell id="UYoktTO1jZP03NETFvOB-187" value="customers" style="rounded=0;whiteSpace=wrap;html=1;" parent="1" vertex="1">
          <mxGeometry x="934" y="-1525" width="118.25" height="33" as="geometry" />
        </mxCell>
        <mxCell id="UYoktTO1jZP03NETFvOB-188" value="" style="endArrow=classic;html=1;rounded=0;entryX=0.5;entryY=0;entryDx=0;entryDy=0;exitX=0.5;exitY=1;exitDx=0;exitDy=0;" parent="1" source="UYoktTO1jZP03NETFvOB-185" target="UYoktTO1jZP03NETFvOB-187" edge="1">
          <mxGeometry width="50" height="50" relative="1" as="geometry">
            <mxPoint x="994.5" y="-1632" as="sourcePoint" />
            <mxPoint x="994.5" y="-1594" as="targetPoint" />
          </mxGeometry>
        </mxCell>
        <mxCell id="UYoktTO1jZP03NETFvOB-189" value="update" style="text;html=1;strokeColor=none;fillColor=none;align=center;verticalAlign=middle;whiteSpace=wrap;rounded=0;" parent="1" vertex="1">
          <mxGeometry x="996.5" y="-1555" width="68" height="20" as="geometry" />
        </mxCell>
        <mxCell id="UYoktTO1jZP03NETFvOB-191" value="関数" style="text;html=1;strokeColor=none;fillColor=none;align=center;verticalAlign=middle;whiteSpace=wrap;rounded=0;" parent="1" vertex="1">
          <mxGeometry x="848.25" y="-2134" width="52.5" height="20" as="geometry" />
        </mxCell>
        <mxCell id="UYoktTO1jZP03NETFvOB-192" value="トリガ関数" style="text;html=1;strokeColor=none;fillColor=none;align=center;verticalAlign=middle;whiteSpace=wrap;rounded=0;" parent="1" vertex="1">
          <mxGeometry x="451" y="-2180" width="112" height="20" as="geometry" />
        </mxCell>
        <mxCell id="UYoktTO1jZP03NETFvOB-193" value="トリガ関数" style="text;html=1;strokeColor=none;fillColor=none;align=center;verticalAlign=middle;whiteSpace=wrap;rounded=0;" parent="1" vertex="1">
          <mxGeometry x="904" y="-1843" width="112" height="20" as="geometry" />
        </mxCell>
        <mxCell id="UYoktTO1jZP03NETFvOB-195" value="ER図" style="text;html=1;strokeColor=none;fillColor=none;align=center;verticalAlign=middle;whiteSpace=wrap;rounded=0;" parent="1" vertex="1">
          <mxGeometry x="422" y="-4540" width="112" height="20" as="geometry" />
        </mxCell>
        <mxCell id="UYoktTO1jZP03NETFvOB-196" value="パーテション" style="text;html=1;strokeColor=none;fillColor=none;align=center;verticalAlign=middle;whiteSpace=wrap;rounded=0;" parent="1" vertex="1">
          <mxGeometry x="531" y="-1449" width="112" height="20" as="geometry" />
        </mxCell>
        <mxCell id="UYoktTO1jZP03NETFvOB-198" value="構成図詳細" style="text;html=1;strokeColor=none;fillColor=none;align=center;verticalAlign=middle;whiteSpace=wrap;rounded=0;" parent="1" vertex="1">
          <mxGeometry x="736" y="-858" width="112" height="20" as="geometry" />
        </mxCell>
        <mxCell id="UYoktTO1jZP03NETFvOB-199" value="構成図" style="text;html=1;strokeColor=none;fillColor=none;align=center;verticalAlign=middle;whiteSpace=wrap;rounded=0;" parent="1" vertex="1">
          <mxGeometry x="700" y="-3245" width="112" height="20" as="geometry" />
        </mxCell>
        <mxCell id="UYoktTO1jZP03NETFvOB-200" value="FDW" style="text;html=1;strokeColor=none;fillColor=none;align=center;verticalAlign=middle;whiteSpace=wrap;rounded=0;" parent="1" vertex="1">
          <mxGeometry x="744" y="1268" width="112" height="20" as="geometry" />
        </mxCell>
        <mxCell id="UYoktTO1jZP03NETFvOB-202" value="" style="edgeStyle=entityRelationEdgeStyle;fontSize=12;html=1;endArrow=ERoneToMany;rounded=0;exitX=1;exitY=0.5;exitDx=0;exitDy=0;" parent="1" source="UYoktTO1jZP03NETFvOB-21" target="UYoktTO1jZP03NETFvOB-84" edge="1">
          <mxGeometry width="100" height="100" relative="1" as="geometry">
            <mxPoint x="972" y="-4087" as="sourcePoint" />
            <mxPoint x="1072" y="-4187" as="targetPoint" />
          </mxGeometry>
        </mxCell>
        <mxCell id="UYoktTO1jZP03NETFvOB-203" value="" style="edgeStyle=entityRelationEdgeStyle;fontSize=12;html=1;endArrow=ERoneToMany;rounded=0;exitX=1;exitY=0.5;exitDx=0;exitDy=0;entryX=0;entryY=0.5;entryDx=0;entryDy=0;" parent="1" source="UYoktTO1jZP03NETFvOB-53" target="UYoktTO1jZP03NETFvOB-81" edge="1">
          <mxGeometry width="100" height="100" relative="1" as="geometry">
            <mxPoint x="727" y="-4439" as="sourcePoint" />
            <mxPoint x="859" y="-3955" as="targetPoint" />
          </mxGeometry>
        </mxCell>
        <mxCell id="UYoktTO1jZP03NETFvOB-204" value="" style="edgeStyle=entityRelationEdgeStyle;fontSize=12;html=1;endArrow=ERoneToMany;rounded=0;exitX=1;exitY=0.5;exitDx=0;exitDy=0;entryX=0;entryY=0.5;entryDx=0;entryDy=0;" parent="1" source="UYoktTO1jZP03NETFvOB-37" target="UYoktTO1jZP03NETFvOB-93" edge="1">
          <mxGeometry width="100" height="100" relative="1" as="geometry">
            <mxPoint x="727" y="-4439" as="sourcePoint" />
            <mxPoint x="859" y="-3955" as="targetPoint" />
          </mxGeometry>
        </mxCell>
        <mxCell id="UYoktTO1jZP03NETFvOB-205" value="" style="edgeStyle=entityRelationEdgeStyle;fontSize=12;html=1;endArrow=ERoneToMany;rounded=0;exitX=0;exitY=0.5;exitDx=0;exitDy=0;entryX=1;entryY=0.5;entryDx=0;entryDy=0;" parent="1" source="UYoktTO1jZP03NETFvOB-2" target="UYoktTO1jZP03NETFvOB-68" edge="1">
          <mxGeometry width="100" height="100" relative="1" as="geometry">
            <mxPoint x="740" y="-4150" as="sourcePoint" />
            <mxPoint x="834" y="-4140" as="targetPoint" />
          </mxGeometry>
        </mxCell>
        <mxCell id="UYoktTO1jZP03NETFvOB-206" value="" style="edgeStyle=entityRelationEdgeStyle;fontSize=12;html=1;endArrow=ERoneToMany;rounded=0;entryX=1;entryY=0.5;entryDx=0;entryDy=0;exitX=0;exitY=0.5;exitDx=0;exitDy=0;" parent="1" source="UYoktTO1jZP03NETFvOB-37" target="UYoktTO1jZP03NETFvOB-62" edge="1">
          <mxGeometry width="100" height="100" relative="1" as="geometry">
            <mxPoint x="722" y="-3799" as="sourcePoint" />
            <mxPoint x="834" y="-4050" as="targetPoint" />
          </mxGeometry>
        </mxCell>
        <mxCell id="P9VTLGZydjlgws4gXL3y-1" value="paypent_methods" style="shape=table;startSize=30;container=1;collapsible=1;childLayout=tableLayout;fixedRows=1;rowLines=0;fontStyle=1;align=center;resizeLast=1;html=1;" parent="1" vertex="1">
          <mxGeometry x="828" y="-5428" width="310" height="90" as="geometry" />
        </mxCell>
        <mxCell id="P9VTLGZydjlgws4gXL3y-2" value="" style="shape=tableRow;horizontal=0;startSize=0;swimlaneHead=0;swimlaneBody=0;fillColor=none;collapsible=0;dropTarget=0;points=[[0,0.5],[1,0.5]];portConstraint=eastwest;top=0;left=0;right=0;bottom=1;" parent="P9VTLGZydjlgws4gXL3y-1" vertex="1">
          <mxGeometry y="30" width="310" height="30" as="geometry" />
        </mxCell>
        <mxCell id="P9VTLGZydjlgws4gXL3y-3" value="PK" style="shape=partialRectangle;connectable=0;fillColor=none;top=0;left=0;bottom=0;right=0;fontStyle=1;overflow=hidden;whiteSpace=wrap;html=1;" parent="P9VTLGZydjlgws4gXL3y-2" vertex="1">
          <mxGeometry width="30" height="30" as="geometry">
            <mxRectangle width="30" height="30" as="alternateBounds" />
          </mxGeometry>
        </mxCell>
        <mxCell id="P9VTLGZydjlgws4gXL3y-4" value="payment_method_id serial" style="shape=partialRectangle;connectable=0;fillColor=none;top=0;left=0;bottom=0;right=0;align=left;spacingLeft=6;fontStyle=5;overflow=hidden;whiteSpace=wrap;html=1;" parent="P9VTLGZydjlgws4gXL3y-2" vertex="1">
          <mxGeometry x="30" width="280" height="30" as="geometry">
            <mxRectangle width="280" height="30" as="alternateBounds" />
          </mxGeometry>
        </mxCell>
        <mxCell id="P9VTLGZydjlgws4gXL3y-5" value="" style="shape=tableRow;horizontal=0;startSize=0;swimlaneHead=0;swimlaneBody=0;fillColor=none;collapsible=0;dropTarget=0;points=[[0,0.5],[1,0.5]];portConstraint=eastwest;top=0;left=0;right=0;bottom=0;" parent="P9VTLGZydjlgws4gXL3y-1" vertex="1">
          <mxGeometry y="60" width="310" height="30" as="geometry" />
        </mxCell>
        <mxCell id="P9VTLGZydjlgws4gXL3y-6" value="" style="shape=partialRectangle;connectable=0;fillColor=none;top=0;left=0;bottom=0;right=0;editable=1;overflow=hidden;whiteSpace=wrap;html=1;" parent="P9VTLGZydjlgws4gXL3y-5" vertex="1">
          <mxGeometry width="30" height="30" as="geometry">
            <mxRectangle width="30" height="30" as="alternateBounds" />
          </mxGeometry>
        </mxCell>
        <mxCell id="P9VTLGZydjlgws4gXL3y-7" value="payment_method_name varchar not null" style="shape=partialRectangle;connectable=0;fillColor=none;top=0;left=0;bottom=0;right=0;align=left;spacingLeft=6;overflow=hidden;whiteSpace=wrap;html=1;" parent="P9VTLGZydjlgws4gXL3y-5" vertex="1">
          <mxGeometry x="30" width="280" height="30" as="geometry">
            <mxRectangle width="280" height="30" as="alternateBounds" />
          </mxGeometry>
        </mxCell>
        <mxCell id="P9VTLGZydjlgws4gXL3y-8" value="menues" style="shape=table;startSize=30;container=1;collapsible=1;childLayout=tableLayout;fixedRows=1;rowLines=0;fontStyle=1;align=center;resizeLast=1;html=1;" parent="1" vertex="1">
          <mxGeometry x="462" y="-5478" width="256" height="180" as="geometry" />
        </mxCell>
        <mxCell id="P9VTLGZydjlgws4gXL3y-9" value="" style="shape=tableRow;horizontal=0;startSize=0;swimlaneHead=0;swimlaneBody=0;fillColor=none;collapsible=0;dropTarget=0;points=[[0,0.5],[1,0.5]];portConstraint=eastwest;top=0;left=0;right=0;bottom=1;" parent="P9VTLGZydjlgws4gXL3y-8" vertex="1">
          <mxGeometry y="30" width="256" height="30" as="geometry" />
        </mxCell>
        <mxCell id="P9VTLGZydjlgws4gXL3y-10" value="PK" style="shape=partialRectangle;connectable=0;fillColor=none;top=0;left=0;bottom=0;right=0;fontStyle=1;overflow=hidden;whiteSpace=wrap;html=1;" parent="P9VTLGZydjlgws4gXL3y-9" vertex="1">
          <mxGeometry width="30" height="30" as="geometry">
            <mxRectangle width="30" height="30" as="alternateBounds" />
          </mxGeometry>
        </mxCell>
        <mxCell id="P9VTLGZydjlgws4gXL3y-11" value="menu_id uuid" style="shape=partialRectangle;connectable=0;fillColor=none;top=0;left=0;bottom=0;right=0;align=left;spacingLeft=6;fontStyle=5;overflow=hidden;whiteSpace=wrap;html=1;" parent="P9VTLGZydjlgws4gXL3y-9" vertex="1">
          <mxGeometry x="30" width="226" height="30" as="geometry">
            <mxRectangle width="226" height="30" as="alternateBounds" />
          </mxGeometry>
        </mxCell>
        <mxCell id="P9VTLGZydjlgws4gXL3y-12" value="" style="shape=tableRow;horizontal=0;startSize=0;swimlaneHead=0;swimlaneBody=0;fillColor=none;collapsible=0;dropTarget=0;points=[[0,0.5],[1,0.5]];portConstraint=eastwest;top=0;left=0;right=0;bottom=0;" parent="P9VTLGZydjlgws4gXL3y-8" vertex="1">
          <mxGeometry y="60" width="256" height="30" as="geometry" />
        </mxCell>
        <mxCell id="P9VTLGZydjlgws4gXL3y-13" value="" style="shape=partialRectangle;connectable=0;fillColor=none;top=0;left=0;bottom=0;right=0;editable=1;overflow=hidden;whiteSpace=wrap;html=1;" parent="P9VTLGZydjlgws4gXL3y-12" vertex="1">
          <mxGeometry width="30" height="30" as="geometry">
            <mxRectangle width="30" height="30" as="alternateBounds" />
          </mxGeometry>
        </mxCell>
        <mxCell id="P9VTLGZydjlgws4gXL3y-14" value="menu_classification varchar not null" style="shape=partialRectangle;connectable=0;fillColor=none;top=0;left=0;bottom=0;right=0;align=left;spacingLeft=6;overflow=hidden;whiteSpace=wrap;html=1;" parent="P9VTLGZydjlgws4gXL3y-12" vertex="1">
          <mxGeometry x="30" width="226" height="30" as="geometry">
            <mxRectangle width="226" height="30" as="alternateBounds" />
          </mxGeometry>
        </mxCell>
        <mxCell id="P9VTLGZydjlgws4gXL3y-15" value="" style="shape=tableRow;horizontal=0;startSize=0;swimlaneHead=0;swimlaneBody=0;fillColor=none;collapsible=0;dropTarget=0;points=[[0,0.5],[1,0.5]];portConstraint=eastwest;top=0;left=0;right=0;bottom=0;" parent="P9VTLGZydjlgws4gXL3y-8" vertex="1">
          <mxGeometry y="90" width="256" height="30" as="geometry" />
        </mxCell>
        <mxCell id="P9VTLGZydjlgws4gXL3y-16" value="" style="shape=partialRectangle;connectable=0;fillColor=none;top=0;left=0;bottom=0;right=0;editable=1;overflow=hidden;whiteSpace=wrap;html=1;" parent="P9VTLGZydjlgws4gXL3y-15" vertex="1">
          <mxGeometry width="30" height="30" as="geometry">
            <mxRectangle width="30" height="30" as="alternateBounds" />
          </mxGeometry>
        </mxCell>
        <mxCell id="P9VTLGZydjlgws4gXL3y-17" value="menu_name varchar not null" style="shape=partialRectangle;connectable=0;fillColor=none;top=0;left=0;bottom=0;right=0;align=left;spacingLeft=6;overflow=hidden;whiteSpace=wrap;html=1;" parent="P9VTLGZydjlgws4gXL3y-15" vertex="1">
          <mxGeometry x="30" width="226" height="30" as="geometry">
            <mxRectangle width="226" height="30" as="alternateBounds" />
          </mxGeometry>
        </mxCell>
        <mxCell id="P9VTLGZydjlgws4gXL3y-18" value="" style="shape=tableRow;horizontal=0;startSize=0;swimlaneHead=0;swimlaneBody=0;fillColor=none;collapsible=0;dropTarget=0;points=[[0,0.5],[1,0.5]];portConstraint=eastwest;top=0;left=0;right=0;bottom=0;" parent="P9VTLGZydjlgws4gXL3y-8" vertex="1">
          <mxGeometry y="120" width="256" height="30" as="geometry" />
        </mxCell>
        <mxCell id="P9VTLGZydjlgws4gXL3y-19" value="" style="shape=partialRectangle;connectable=0;fillColor=none;top=0;left=0;bottom=0;right=0;editable=1;overflow=hidden;whiteSpace=wrap;html=1;" parent="P9VTLGZydjlgws4gXL3y-18" vertex="1">
          <mxGeometry width="30" height="30" as="geometry">
            <mxRectangle width="30" height="30" as="alternateBounds" />
          </mxGeometry>
        </mxCell>
        <mxCell id="P9VTLGZydjlgws4gXL3y-20" value="menu_price integer not null" style="shape=partialRectangle;connectable=0;fillColor=none;top=0;left=0;bottom=0;right=0;align=left;spacingLeft=6;overflow=hidden;whiteSpace=wrap;html=1;" parent="P9VTLGZydjlgws4gXL3y-18" vertex="1">
          <mxGeometry x="30" width="226" height="30" as="geometry">
            <mxRectangle width="226" height="30" as="alternateBounds" />
          </mxGeometry>
        </mxCell>
        <mxCell id="P9VTLGZydjlgws4gXL3y-21" style="shape=tableRow;horizontal=0;startSize=0;swimlaneHead=0;swimlaneBody=0;fillColor=none;collapsible=0;dropTarget=0;points=[[0,0.5],[1,0.5]];portConstraint=eastwest;top=0;left=0;right=0;bottom=0;" parent="P9VTLGZydjlgws4gXL3y-8" vertex="1">
          <mxGeometry y="150" width="256" height="30" as="geometry" />
        </mxCell>
        <mxCell id="P9VTLGZydjlgws4gXL3y-22" style="shape=partialRectangle;connectable=0;fillColor=none;top=0;left=0;bottom=0;right=0;editable=1;overflow=hidden;whiteSpace=wrap;html=1;" parent="P9VTLGZydjlgws4gXL3y-21" vertex="1">
          <mxGeometry width="30" height="30" as="geometry">
            <mxRectangle width="30" height="30" as="alternateBounds" />
          </mxGeometry>
        </mxCell>
        <mxCell id="P9VTLGZydjlgws4gXL3y-23" value="sale_flg boolean not null" style="shape=partialRectangle;connectable=0;fillColor=none;top=0;left=0;bottom=0;right=0;align=left;spacingLeft=6;overflow=hidden;whiteSpace=wrap;html=1;" parent="P9VTLGZydjlgws4gXL3y-21" vertex="1">
          <mxGeometry x="30" width="226" height="30" as="geometry">
            <mxRectangle width="226" height="30" as="alternateBounds" />
          </mxGeometry>
        </mxCell>
        <mxCell id="P9VTLGZydjlgws4gXL3y-24" value="customers_{store_id}" style="shape=table;startSize=30;container=1;collapsible=1;childLayout=tableLayout;fixedRows=1;rowLines=0;fontStyle=1;align=center;resizeLast=1;html=1;" parent="1" vertex="1">
          <mxGeometry x="482" y="-5276" width="238" height="270" as="geometry" />
        </mxCell>
        <mxCell id="P9VTLGZydjlgws4gXL3y-25" value="" style="shape=tableRow;horizontal=0;startSize=0;swimlaneHead=0;swimlaneBody=0;fillColor=none;collapsible=0;dropTarget=0;points=[[0,0.5],[1,0.5]];portConstraint=eastwest;top=0;left=0;right=0;bottom=1;" parent="P9VTLGZydjlgws4gXL3y-24" vertex="1">
          <mxGeometry y="30" width="238" height="30" as="geometry" />
        </mxCell>
        <mxCell id="P9VTLGZydjlgws4gXL3y-26" value="" style="shape=partialRectangle;connectable=0;fillColor=none;top=0;left=0;bottom=0;right=0;fontStyle=1;overflow=hidden;whiteSpace=wrap;html=1;" parent="P9VTLGZydjlgws4gXL3y-25" vertex="1">
          <mxGeometry width="30" height="30" as="geometry">
            <mxRectangle width="30" height="30" as="alternateBounds" />
          </mxGeometry>
        </mxCell>
        <mxCell id="P9VTLGZydjlgws4gXL3y-27" value="customer_id uuid" style="shape=partialRectangle;connectable=0;fillColor=none;top=0;left=0;bottom=0;right=0;align=left;spacingLeft=6;fontStyle=5;overflow=hidden;whiteSpace=wrap;html=1;" parent="P9VTLGZydjlgws4gXL3y-25" vertex="1">
          <mxGeometry x="30" width="208" height="30" as="geometry">
            <mxRectangle width="208" height="30" as="alternateBounds" />
          </mxGeometry>
        </mxCell>
        <mxCell id="P9VTLGZydjlgws4gXL3y-28" value="" style="shape=tableRow;horizontal=0;startSize=0;swimlaneHead=0;swimlaneBody=0;fillColor=none;collapsible=0;dropTarget=0;points=[[0,0.5],[1,0.5]];portConstraint=eastwest;top=0;left=0;right=0;bottom=0;" parent="P9VTLGZydjlgws4gXL3y-24" vertex="1">
          <mxGeometry y="60" width="238" height="30" as="geometry" />
        </mxCell>
        <mxCell id="P9VTLGZydjlgws4gXL3y-29" value="" style="shape=partialRectangle;connectable=0;fillColor=none;top=0;left=0;bottom=0;right=0;editable=1;overflow=hidden;whiteSpace=wrap;html=1;" parent="P9VTLGZydjlgws4gXL3y-28" vertex="1">
          <mxGeometry width="30" height="30" as="geometry">
            <mxRectangle width="30" height="30" as="alternateBounds" />
          </mxGeometry>
        </mxCell>
        <mxCell id="P9VTLGZydjlgws4gXL3y-30" value="entry_time timestamp not null" style="shape=partialRectangle;connectable=0;fillColor=none;top=0;left=0;bottom=0;right=0;align=left;spacingLeft=6;overflow=hidden;whiteSpace=wrap;html=1;" parent="P9VTLGZydjlgws4gXL3y-28" vertex="1">
          <mxGeometry x="30" width="208" height="30" as="geometry">
            <mxRectangle width="208" height="30" as="alternateBounds" />
          </mxGeometry>
        </mxCell>
        <mxCell id="P9VTLGZydjlgws4gXL3y-31" value="" style="shape=tableRow;horizontal=0;startSize=0;swimlaneHead=0;swimlaneBody=0;fillColor=none;collapsible=0;dropTarget=0;points=[[0,0.5],[1,0.5]];portConstraint=eastwest;top=0;left=0;right=0;bottom=0;" parent="P9VTLGZydjlgws4gXL3y-24" vertex="1">
          <mxGeometry y="90" width="238" height="30" as="geometry" />
        </mxCell>
        <mxCell id="P9VTLGZydjlgws4gXL3y-32" value="" style="shape=partialRectangle;connectable=0;fillColor=none;top=0;left=0;bottom=0;right=0;editable=1;overflow=hidden;whiteSpace=wrap;html=1;" parent="P9VTLGZydjlgws4gXL3y-31" vertex="1">
          <mxGeometry width="30" height="30" as="geometry">
            <mxRectangle width="30" height="30" as="alternateBounds" />
          </mxGeometry>
        </mxCell>
        <mxCell id="P9VTLGZydjlgws4gXL3y-33" value="number_of_people integer not null" style="shape=partialRectangle;connectable=0;fillColor=none;top=0;left=0;bottom=0;right=0;align=left;spacingLeft=6;overflow=hidden;whiteSpace=wrap;html=1;" parent="P9VTLGZydjlgws4gXL3y-31" vertex="1">
          <mxGeometry x="30" width="208" height="30" as="geometry">
            <mxRectangle width="208" height="30" as="alternateBounds" />
          </mxGeometry>
        </mxCell>
        <mxCell id="P9VTLGZydjlgws4gXL3y-34" value="" style="shape=tableRow;horizontal=0;startSize=0;swimlaneHead=0;swimlaneBody=0;fillColor=none;collapsible=0;dropTarget=0;points=[[0,0.5],[1,0.5]];portConstraint=eastwest;top=0;left=0;right=0;bottom=0;" parent="P9VTLGZydjlgws4gXL3y-24" vertex="1">
          <mxGeometry y="120" width="238" height="30" as="geometry" />
        </mxCell>
        <mxCell id="P9VTLGZydjlgws4gXL3y-35" value="" style="shape=partialRectangle;connectable=0;fillColor=none;top=0;left=0;bottom=0;right=0;editable=1;overflow=hidden;whiteSpace=wrap;html=1;" parent="P9VTLGZydjlgws4gXL3y-34" vertex="1">
          <mxGeometry width="30" height="30" as="geometry">
            <mxRectangle width="30" height="30" as="alternateBounds" />
          </mxGeometry>
        </mxCell>
        <mxCell id="P9VTLGZydjlgws4gXL3y-36" value="seat_id integer not null" style="shape=partialRectangle;connectable=0;fillColor=none;top=0;left=0;bottom=0;right=0;align=left;spacingLeft=6;overflow=hidden;whiteSpace=wrap;html=1;" parent="P9VTLGZydjlgws4gXL3y-34" vertex="1">
          <mxGeometry x="30" width="208" height="30" as="geometry">
            <mxRectangle width="208" height="30" as="alternateBounds" />
          </mxGeometry>
        </mxCell>
        <mxCell id="P9VTLGZydjlgws4gXL3y-37" style="shape=tableRow;horizontal=0;startSize=0;swimlaneHead=0;swimlaneBody=0;fillColor=none;collapsible=0;dropTarget=0;points=[[0,0.5],[1,0.5]];portConstraint=eastwest;top=0;left=0;right=0;bottom=0;" parent="P9VTLGZydjlgws4gXL3y-24" vertex="1">
          <mxGeometry y="150" width="238" height="30" as="geometry" />
        </mxCell>
        <mxCell id="P9VTLGZydjlgws4gXL3y-38" style="shape=partialRectangle;connectable=0;fillColor=none;top=0;left=0;bottom=0;right=0;editable=1;overflow=hidden;whiteSpace=wrap;html=1;" parent="P9VTLGZydjlgws4gXL3y-37" vertex="1">
          <mxGeometry width="30" height="30" as="geometry">
            <mxRectangle width="30" height="30" as="alternateBounds" />
          </mxGeometry>
        </mxCell>
        <mxCell id="P9VTLGZydjlgws4gXL3y-39" value="exit_time timestamp" style="shape=partialRectangle;connectable=0;fillColor=none;top=0;left=0;bottom=0;right=0;align=left;spacingLeft=6;overflow=hidden;whiteSpace=wrap;html=1;" parent="P9VTLGZydjlgws4gXL3y-37" vertex="1">
          <mxGeometry x="30" width="208" height="30" as="geometry">
            <mxRectangle width="208" height="30" as="alternateBounds" />
          </mxGeometry>
        </mxCell>
        <mxCell id="P9VTLGZydjlgws4gXL3y-40" style="shape=tableRow;horizontal=0;startSize=0;swimlaneHead=0;swimlaneBody=0;fillColor=none;collapsible=0;dropTarget=0;points=[[0,0.5],[1,0.5]];portConstraint=eastwest;top=0;left=0;right=0;bottom=0;" parent="P9VTLGZydjlgws4gXL3y-24" vertex="1">
          <mxGeometry y="180" width="238" height="30" as="geometry" />
        </mxCell>
        <mxCell id="P9VTLGZydjlgws4gXL3y-41" style="shape=partialRectangle;connectable=0;fillColor=none;top=0;left=0;bottom=0;right=0;editable=1;overflow=hidden;whiteSpace=wrap;html=1;" parent="P9VTLGZydjlgws4gXL3y-40" vertex="1">
          <mxGeometry width="30" height="30" as="geometry">
            <mxRectangle width="30" height="30" as="alternateBounds" />
          </mxGeometry>
        </mxCell>
        <mxCell id="P9VTLGZydjlgws4gXL3y-42" value="payment_price integer" style="shape=partialRectangle;connectable=0;fillColor=none;top=0;left=0;bottom=0;right=0;align=left;spacingLeft=6;overflow=hidden;whiteSpace=wrap;html=1;" parent="P9VTLGZydjlgws4gXL3y-40" vertex="1">
          <mxGeometry x="30" width="208" height="30" as="geometry">
            <mxRectangle width="208" height="30" as="alternateBounds" />
          </mxGeometry>
        </mxCell>
        <mxCell id="P9VTLGZydjlgws4gXL3y-43" style="shape=tableRow;horizontal=0;startSize=0;swimlaneHead=0;swimlaneBody=0;fillColor=none;collapsible=0;dropTarget=0;points=[[0,0.5],[1,0.5]];portConstraint=eastwest;top=0;left=0;right=0;bottom=0;" parent="P9VTLGZydjlgws4gXL3y-24" vertex="1">
          <mxGeometry y="210" width="238" height="30" as="geometry" />
        </mxCell>
        <mxCell id="P9VTLGZydjlgws4gXL3y-44" value="" style="shape=partialRectangle;connectable=0;fillColor=none;top=0;left=0;bottom=0;right=0;editable=1;overflow=hidden;whiteSpace=wrap;html=1;" parent="P9VTLGZydjlgws4gXL3y-43" vertex="1">
          <mxGeometry width="30" height="30" as="geometry">
            <mxRectangle width="30" height="30" as="alternateBounds" />
          </mxGeometry>
        </mxCell>
        <mxCell id="P9VTLGZydjlgws4gXL3y-45" value="payment_method serial" style="shape=partialRectangle;connectable=0;fillColor=none;top=0;left=0;bottom=0;right=0;align=left;spacingLeft=6;overflow=hidden;whiteSpace=wrap;html=1;" parent="P9VTLGZydjlgws4gXL3y-43" vertex="1">
          <mxGeometry x="30" width="208" height="30" as="geometry">
            <mxRectangle width="208" height="30" as="alternateBounds" />
          </mxGeometry>
        </mxCell>
        <mxCell id="P9VTLGZydjlgws4gXL3y-46" style="shape=tableRow;horizontal=0;startSize=0;swimlaneHead=0;swimlaneBody=0;fillColor=none;collapsible=0;dropTarget=0;points=[[0,0.5],[1,0.5]];portConstraint=eastwest;top=0;left=0;right=0;bottom=0;" parent="P9VTLGZydjlgws4gXL3y-24" vertex="1">
          <mxGeometry y="240" width="238" height="30" as="geometry" />
        </mxCell>
        <mxCell id="P9VTLGZydjlgws4gXL3y-47" style="shape=partialRectangle;connectable=0;fillColor=none;top=0;left=0;bottom=0;right=0;editable=1;overflow=hidden;whiteSpace=wrap;html=1;" parent="P9VTLGZydjlgws4gXL3y-46" vertex="1">
          <mxGeometry width="30" height="30" as="geometry">
            <mxRectangle width="30" height="30" as="alternateBounds" />
          </mxGeometry>
        </mxCell>
        <mxCell id="P9VTLGZydjlgws4gXL3y-48" value="check_time timestamp" style="shape=partialRectangle;connectable=0;fillColor=none;top=0;left=0;bottom=0;right=0;align=left;spacingLeft=6;overflow=hidden;whiteSpace=wrap;html=1;" parent="P9VTLGZydjlgws4gXL3y-46" vertex="1">
          <mxGeometry x="30" width="208" height="30" as="geometry">
            <mxRectangle width="208" height="30" as="alternateBounds" />
          </mxGeometry>
        </mxCell>
        <mxCell id="P9VTLGZydjlgws4gXL3y-49" value="orders_{store_id}" style="shape=table;startSize=30;container=1;collapsible=1;childLayout=tableLayout;fixedRows=1;rowLines=0;fontStyle=1;align=center;resizeLast=1;html=1;" parent="1" vertex="1">
          <mxGeometry x="851.75" y="-5270" width="304" height="270" as="geometry" />
        </mxCell>
        <mxCell id="P9VTLGZydjlgws4gXL3y-50" style="shape=tableRow;horizontal=0;startSize=0;swimlaneHead=0;swimlaneBody=0;fillColor=none;collapsible=0;dropTarget=0;points=[[0,0.5],[1,0.5]];portConstraint=eastwest;top=0;left=0;right=0;bottom=0;" parent="P9VTLGZydjlgws4gXL3y-49" vertex="1">
          <mxGeometry y="30" width="304" height="30" as="geometry" />
        </mxCell>
        <mxCell id="P9VTLGZydjlgws4gXL3y-51" style="shape=partialRectangle;connectable=0;fillColor=none;top=0;left=0;bottom=0;right=0;editable=1;overflow=hidden;whiteSpace=wrap;html=1;" parent="P9VTLGZydjlgws4gXL3y-50" vertex="1">
          <mxGeometry width="30" height="30" as="geometry">
            <mxRectangle width="30" height="30" as="alternateBounds" />
          </mxGeometry>
        </mxCell>
        <mxCell id="P9VTLGZydjlgws4gXL3y-52" value="order_time timestamp" style="shape=partialRectangle;connectable=0;fillColor=none;top=0;left=0;bottom=0;right=0;align=left;spacingLeft=6;overflow=hidden;whiteSpace=wrap;html=1;" parent="P9VTLGZydjlgws4gXL3y-50" vertex="1">
          <mxGeometry x="30" width="274" height="30" as="geometry">
            <mxRectangle width="274" height="30" as="alternateBounds" />
          </mxGeometry>
        </mxCell>
        <mxCell id="P9VTLGZydjlgws4gXL3y-53" value="" style="shape=tableRow;horizontal=0;startSize=0;swimlaneHead=0;swimlaneBody=0;fillColor=none;collapsible=0;dropTarget=0;points=[[0,0.5],[1,0.5]];portConstraint=eastwest;top=0;left=0;right=0;bottom=0;" parent="P9VTLGZydjlgws4gXL3y-49" vertex="1">
          <mxGeometry y="60" width="304" height="30" as="geometry" />
        </mxCell>
        <mxCell id="P9VTLGZydjlgws4gXL3y-54" value="" style="shape=partialRectangle;connectable=0;fillColor=none;top=0;left=0;bottom=0;right=0;editable=1;overflow=hidden;whiteSpace=wrap;html=1;" parent="P9VTLGZydjlgws4gXL3y-53" vertex="1">
          <mxGeometry width="30" height="30" as="geometry">
            <mxRectangle width="30" height="30" as="alternateBounds" />
          </mxGeometry>
        </mxCell>
        <mxCell id="P9VTLGZydjlgws4gXL3y-55" value="customer_id uuid not null" style="shape=partialRectangle;connectable=0;fillColor=none;top=0;left=0;bottom=0;right=0;align=left;spacingLeft=6;overflow=hidden;whiteSpace=wrap;html=1;" parent="P9VTLGZydjlgws4gXL3y-53" vertex="1">
          <mxGeometry x="30" width="274" height="30" as="geometry">
            <mxRectangle width="274" height="30" as="alternateBounds" />
          </mxGeometry>
        </mxCell>
        <mxCell id="P9VTLGZydjlgws4gXL3y-56" value="" style="shape=tableRow;horizontal=0;startSize=0;swimlaneHead=0;swimlaneBody=0;fillColor=none;collapsible=0;dropTarget=0;points=[[0,0.5],[1,0.5]];portConstraint=eastwest;top=0;left=0;right=0;bottom=0;" parent="P9VTLGZydjlgws4gXL3y-49" vertex="1">
          <mxGeometry y="90" width="304" height="30" as="geometry" />
        </mxCell>
        <mxCell id="P9VTLGZydjlgws4gXL3y-57" value="" style="shape=partialRectangle;connectable=0;fillColor=none;top=0;left=0;bottom=0;right=0;editable=1;overflow=hidden;whiteSpace=wrap;html=1;" parent="P9VTLGZydjlgws4gXL3y-56" vertex="1">
          <mxGeometry width="30" height="30" as="geometry">
            <mxRectangle width="30" height="30" as="alternateBounds" />
          </mxGeometry>
        </mxCell>
        <mxCell id="P9VTLGZydjlgws4gXL3y-58" value="menu_id uuid not null" style="shape=partialRectangle;connectable=0;fillColor=none;top=0;left=0;bottom=0;right=0;align=left;spacingLeft=6;overflow=hidden;whiteSpace=wrap;html=1;" parent="P9VTLGZydjlgws4gXL3y-56" vertex="1">
          <mxGeometry x="30" width="274" height="30" as="geometry">
            <mxRectangle width="274" height="30" as="alternateBounds" />
          </mxGeometry>
        </mxCell>
        <mxCell id="P9VTLGZydjlgws4gXL3y-59" value="" style="shape=tableRow;horizontal=0;startSize=0;swimlaneHead=0;swimlaneBody=0;fillColor=none;collapsible=0;dropTarget=0;points=[[0,0.5],[1,0.5]];portConstraint=eastwest;top=0;left=0;right=0;bottom=0;" parent="P9VTLGZydjlgws4gXL3y-49" vertex="1">
          <mxGeometry y="120" width="304" height="30" as="geometry" />
        </mxCell>
        <mxCell id="P9VTLGZydjlgws4gXL3y-60" value="" style="shape=partialRectangle;connectable=0;fillColor=none;top=0;left=0;bottom=0;right=0;editable=1;overflow=hidden;whiteSpace=wrap;html=1;" parent="P9VTLGZydjlgws4gXL3y-59" vertex="1">
          <mxGeometry width="30" height="30" as="geometry">
            <mxRectangle width="30" height="30" as="alternateBounds" />
          </mxGeometry>
        </mxCell>
        <mxCell id="P9VTLGZydjlgws4gXL3y-61" value="menu_price integer not null" style="shape=partialRectangle;connectable=0;fillColor=none;top=0;left=0;bottom=0;right=0;align=left;spacingLeft=6;overflow=hidden;whiteSpace=wrap;html=1;" parent="P9VTLGZydjlgws4gXL3y-59" vertex="1">
          <mxGeometry x="30" width="274" height="30" as="geometry">
            <mxRectangle width="274" height="30" as="alternateBounds" />
          </mxGeometry>
        </mxCell>
        <mxCell id="P9VTLGZydjlgws4gXL3y-62" style="shape=tableRow;horizontal=0;startSize=0;swimlaneHead=0;swimlaneBody=0;fillColor=none;collapsible=0;dropTarget=0;points=[[0,0.5],[1,0.5]];portConstraint=eastwest;top=0;left=0;right=0;bottom=0;" parent="P9VTLGZydjlgws4gXL3y-49" vertex="1">
          <mxGeometry y="150" width="304" height="30" as="geometry" />
        </mxCell>
        <mxCell id="P9VTLGZydjlgws4gXL3y-63" style="shape=partialRectangle;connectable=0;fillColor=none;top=0;left=0;bottom=0;right=0;editable=1;overflow=hidden;whiteSpace=wrap;html=1;" parent="P9VTLGZydjlgws4gXL3y-62" vertex="1">
          <mxGeometry width="30" height="30" as="geometry">
            <mxRectangle width="30" height="30" as="alternateBounds" />
          </mxGeometry>
        </mxCell>
        <mxCell id="P9VTLGZydjlgws4gXL3y-64" value="number_of_orders integer not null" style="shape=partialRectangle;connectable=0;fillColor=none;top=0;left=0;bottom=0;right=0;align=left;spacingLeft=6;overflow=hidden;whiteSpace=wrap;html=1;" parent="P9VTLGZydjlgws4gXL3y-62" vertex="1">
          <mxGeometry x="30" width="274" height="30" as="geometry">
            <mxRectangle width="274" height="30" as="alternateBounds" />
          </mxGeometry>
        </mxCell>
        <mxCell id="P9VTLGZydjlgws4gXL3y-65" style="shape=tableRow;horizontal=0;startSize=0;swimlaneHead=0;swimlaneBody=0;fillColor=none;collapsible=0;dropTarget=0;points=[[0,0.5],[1,0.5]];portConstraint=eastwest;top=0;left=0;right=0;bottom=0;" parent="P9VTLGZydjlgws4gXL3y-49" vertex="1">
          <mxGeometry y="180" width="304" height="30" as="geometry" />
        </mxCell>
        <mxCell id="P9VTLGZydjlgws4gXL3y-66" value="" style="shape=partialRectangle;connectable=0;fillColor=none;top=0;left=0;bottom=0;right=0;editable=1;overflow=hidden;whiteSpace=wrap;html=1;" parent="P9VTLGZydjlgws4gXL3y-65" vertex="1">
          <mxGeometry width="30" height="30" as="geometry">
            <mxRectangle width="30" height="30" as="alternateBounds" />
          </mxGeometry>
        </mxCell>
        <mxCell id="P9VTLGZydjlgws4gXL3y-67" value="seat_id integer not null" style="shape=partialRectangle;connectable=0;fillColor=none;top=0;left=0;bottom=0;right=0;align=left;spacingLeft=6;overflow=hidden;whiteSpace=wrap;html=1;" parent="P9VTLGZydjlgws4gXL3y-65" vertex="1">
          <mxGeometry x="30" width="274" height="30" as="geometry">
            <mxRectangle width="274" height="30" as="alternateBounds" />
          </mxGeometry>
        </mxCell>
        <mxCell id="P9VTLGZydjlgws4gXL3y-68" style="shape=tableRow;horizontal=0;startSize=0;swimlaneHead=0;swimlaneBody=0;fillColor=none;collapsible=0;dropTarget=0;points=[[0,0.5],[1,0.5]];portConstraint=eastwest;top=0;left=0;right=0;bottom=0;" parent="P9VTLGZydjlgws4gXL3y-49" vertex="1">
          <mxGeometry y="210" width="304" height="30" as="geometry" />
        </mxCell>
        <mxCell id="P9VTLGZydjlgws4gXL3y-69" style="shape=partialRectangle;connectable=0;fillColor=none;top=0;left=0;bottom=0;right=0;editable=1;overflow=hidden;whiteSpace=wrap;html=1;" parent="P9VTLGZydjlgws4gXL3y-68" vertex="1">
          <mxGeometry width="30" height="30" as="geometry">
            <mxRectangle width="30" height="30" as="alternateBounds" />
          </mxGeometry>
        </mxCell>
        <mxCell id="P9VTLGZydjlgws4gXL3y-70" value="distributed_flg boolean not null default false" style="shape=partialRectangle;connectable=0;fillColor=none;top=0;left=0;bottom=0;right=0;align=left;spacingLeft=6;overflow=hidden;whiteSpace=wrap;html=1;" parent="P9VTLGZydjlgws4gXL3y-68" vertex="1">
          <mxGeometry x="30" width="274" height="30" as="geometry">
            <mxRectangle width="274" height="30" as="alternateBounds" />
          </mxGeometry>
        </mxCell>
        <mxCell id="P9VTLGZydjlgws4gXL3y-71" style="shape=tableRow;horizontal=0;startSize=0;swimlaneHead=0;swimlaneBody=0;fillColor=none;collapsible=0;dropTarget=0;points=[[0,0.5],[1,0.5]];portConstraint=eastwest;top=0;left=0;right=0;bottom=0;" parent="P9VTLGZydjlgws4gXL3y-49" vertex="1">
          <mxGeometry y="240" width="304" height="30" as="geometry" />
        </mxCell>
        <mxCell id="P9VTLGZydjlgws4gXL3y-72" style="shape=partialRectangle;connectable=0;fillColor=none;top=0;left=0;bottom=0;right=0;editable=1;overflow=hidden;whiteSpace=wrap;html=1;" parent="P9VTLGZydjlgws4gXL3y-71" vertex="1">
          <mxGeometry width="30" height="30" as="geometry">
            <mxRectangle width="30" height="30" as="alternateBounds" />
          </mxGeometry>
        </mxCell>
        <mxCell id="P9VTLGZydjlgws4gXL3y-73" value="received_flg boolean not null default false" style="shape=partialRectangle;connectable=0;fillColor=none;top=0;left=0;bottom=0;right=0;align=left;spacingLeft=6;overflow=hidden;whiteSpace=wrap;html=1;" parent="P9VTLGZydjlgws4gXL3y-71" vertex="1">
          <mxGeometry x="30" width="274" height="30" as="geometry">
            <mxRectangle width="274" height="30" as="alternateBounds" />
          </mxGeometry>
        </mxCell>
        <mxCell id="5AjUTUNrIPV1-SOtYnfe-1" value="" style="edgeStyle=entityRelationEdgeStyle;fontSize=12;html=1;endArrow=ERoneToMany;rounded=0;exitX=0;exitY=0.5;exitDx=0;exitDy=0;" edge="1" parent="1" source="P9VTLGZydjlgws4gXL3y-2" target="P9VTLGZydjlgws4gXL3y-43">
          <mxGeometry width="100" height="100" relative="1" as="geometry">
            <mxPoint x="924" y="-5071" as="sourcePoint" />
            <mxPoint x="568" y="-4762" as="targetPoint" />
          </mxGeometry>
        </mxCell>
        <mxCell id="5AjUTUNrIPV1-SOtYnfe-2" value="" style="edgeStyle=entityRelationEdgeStyle;fontSize=12;html=1;endArrow=ERoneToMany;rounded=0;exitX=1;exitY=0.5;exitDx=0;exitDy=0;entryX=0;entryY=0.5;entryDx=0;entryDy=0;" edge="1" parent="1" source="P9VTLGZydjlgws4gXL3y-9" target="P9VTLGZydjlgws4gXL3y-56">
          <mxGeometry width="100" height="100" relative="1" as="geometry">
            <mxPoint x="829" y="-5382" as="sourcePoint" />
            <mxPoint x="721" y="-5025" as="targetPoint" />
          </mxGeometry>
        </mxCell>
        <mxCell id="5AjUTUNrIPV1-SOtYnfe-3" value="" style="edgeStyle=entityRelationEdgeStyle;fontSize=12;html=1;endArrow=ERoneToMany;rounded=0;exitX=1;exitY=0.5;exitDx=0;exitDy=0;entryX=0;entryY=0.5;entryDx=0;entryDy=0;" edge="1" parent="1" source="P9VTLGZydjlgws4gXL3y-25" target="P9VTLGZydjlgws4gXL3y-53">
          <mxGeometry width="100" height="100" relative="1" as="geometry">
            <mxPoint x="897" y="-5258" as="sourcePoint" />
            <mxPoint x="1008" y="-4980" as="targetPoint" />
          </mxGeometry>
        </mxCell>
      </root>
    </mxGraphModel>
  </diagram>
</mxfile>
